<svg width="100" height="50" xmlns="http://www.w3.org/2000/svg">
 <!-- Created with Method Draw - http://github.com/duopixel/Method-Draw/ -->

 <g>
  <title>background</title>
  <rect x="-1" y="-1" width="102" height="52" id="canvas_background" fill="none"/>
  <g id="canvasGrid" display="none">
   <rect id="svg_3" width="100%" height="100%" x="0" y="0" stroke-width="0" fill="url(#gridpattern)"/>
  </g>
 </g>
 <g>
  <title>Layer 1</title>
  <text fill="#2d2d2d" stroke="#666666" stroke-width="0" x="19.500095" y="43.5" id="svg_1" font-size="20" font-family="'Trebuchet MS', Gadget, sans-serif" text-anchor="start" xml:space="preserve">Ice Blog</text>
  <path stroke-width="1.1" fill="#f5f5f5" d="m8.573883,13.161586c-0.15001,0 -0.227115,-0.175755 -0.227115,-0.386517c0,-0.175714 0.038547,-0.346313 0.15001,-0.346313c0.077105,0 0.193177,0.170599 0.231723,0.346313c0.077105,0.255837 0,0.386517 -0.154618,0.386517zm25.642635,10.028367c0.343198,0 0.420292,0.045075 0.227115,0.346272c-0.111463,0.210762 -0.343187,0.386476 -0.45465,0.386476c-0.11606,0 -0.231723,-0.175714 -0.231723,-0.386476c0,-0.215932 0.15463,-0.346272 0.459258,-0.346272zm-23.96064,-12.266952c-0.343187,-0.085279 -0.381745,-0.517116 0,-0.647497c0.193165,-0.04015 0.30464,0.085265 0.30464,0.346313c0,0.215905 -0.111475,0.341374 -0.30464,0.301184zm-4.277899,13.642068c0.459258,-0.125483 0.459258,-0.215673 0.30464,-0.511959c-0.115663,-0.215673 -0.15421,-0.476694 -0.077105,-0.561986c0.038547,-0.130612 0.231723,0 0.343187,0.255864c0.154618,0.346313 0.27027,0.39166 0.57491,0.175714c0.188988,-0.130367 0.343187,-0.215878 0.343187,-0.085265c0,0.085265 0.116072,0 0.266082,-0.175714c0.231735,-0.255864 0.270282,-0.818082 0.038558,-1.119292c-0.188568,-0.255864 -1.145632,-0.170571 -1.411713,0.130367c-0.15421,0.215946 -0.270282,0.170844 -0.420292,-0.215633c-0.231723,-0.642612 -0.231723,-0.73283 0.304628,-0.77298c0.459258,0 0.459258,0 0.077105,-0.26102c-0.192757,-0.125483 -0.381733,-0.386476 -0.381733,-0.557075c0,-0.43181 0.532163,-0.687673 0.763887,-0.386463c0.077105,0.125456 0.227127,0.255864 0.381745,0.255864c0.30464,0 1.759088,-1.460463 1.759088,-1.761673c0,-0.130599 0.15043,-0.215864 0.30464,-0.130599c0.188977,0.045333 0.532175,-0.085265 0.87997,-0.301211c0.493197,-0.346286 0.493197,-0.386476 0.227115,-0.948463c-0.188568,-0.386476 -0.420292,-0.517116 -0.956655,-0.517116c-0.609268,0 -0.763887,0.085306 -0.952455,0.602422c-0.077525,0.346272 -0.309237,0.60215 -0.459258,0.60215c-0.266082,0 -0.343187,-0.386245 -0.077105,-0.60215c0.115652,-0.085306 0.192757,-0.386476 0.192757,-0.687687c0,-0.471796 -0.077105,-0.557075 -0.57491,-0.431578c-0.497805,0.085265 -0.497805,0.045075 -0.381745,-0.602449c0.077105,-0.386463 0.188568,-0.732748 0.266093,-0.772939c0.077105,-0.045075 0.154198,-0.431578 0.154198,-0.818054c0,-0.77302 0.227535,-0.903388 0.648247,-0.346313c0.192745,0.301197 0.308828,0.346313 0.381733,0.085265c0.077105,-0.170571 0.347375,-0.210762 0.768087,-0.125497c0.570722,0.170599 0.609268,0.125497 0.532163,-0.386476c-0.038547,-0.30117 -0.077513,-0.647483 -0.11606,-0.732748c0,-0.130408 -0.188568,-0.301211 -0.416103,-0.431619c-0.459258,-0.215864 -0.57491,-0.732748 -0.154618,-0.732748c0.116072,0 0.227523,-0.085306 0.227523,-0.256136c0,-0.130408 0.231735,-0.215673 0.536363,-0.175741c0.420712,0.045333 0.647827,-0.125429 1.222737,-1.028775c0.420712,-0.647524 0.72534,-0.993809 0.763898,-0.818095c0.038547,0.215673 0.231723,0.341129 0.4207,0.341129c0.30464,0 0.343198,-0.125456 0.231735,-0.687442c-0.038967,-0.386503 -0.231735,-0.858245 -0.347795,-1.07419c-0.343198,-0.476884 -0.343198,-1.033959 0,-0.863429c0.27027,0.170844 1.111262,-0.300939 1.111262,-0.602136c0,-0.130612 0.111883,-0.215905 0.266082,-0.215905c0.15463,0 0.227535,0.261007 0.227535,0.602408c0,0.431578 0.077105,0.602177 0.270282,0.47668c0.15001,-0.090204 0.266093,-0.346313 0.266093,-0.516871c0,-0.517143 1.222725,-1.420503 1.527353,-1.164408c0.116083,0.085333 0.231723,0 0.270713,-0.30117c0.111452,-0.602408 0.802013,-1.07419 1.106642,-0.77298c0.15463,0.125456 0.304652,0.085306 0.343618,-0.045075c0.077093,-0.17083 0.381733,-0.301211 0.72492,-0.341429c0.343187,-0.045075 0.802445,-0.215905 0.995622,-0.391619c0.72492,-0.557075 1.450272,-0.516884 1.7549,0.085565c0.193177,0.431551 0.27027,0.431551 0.27027,0.13034c0,-0.386503 0.150442,-0.431578 1.068538,-0.30117c1.45446,0.17083 1.681995,0.17083 2.218358,-0.045116c0.343187,-0.125483 0.459247,-0.085293 0.459247,0.26098c0,0.215946 0.111475,0.386517 0.266093,0.386517c0.115652,0 0.227115,-0.125497 0.227115,-0.256109c0,-0.346272 0.613888,-0.516871 1.15024,-0.346272c0.416103,0.17083 0.45465,0.215864 0.343187,1.375347c-0.038547,0.692599 0,1.164381 0.072917,1.164381c0.077093,0 0.154618,-0.301211 0.154618,-0.732789c0,-0.727878 0.420292,-1.028843 0.57491,-0.431592c0.038558,0.215687 0.15001,0.130381 0.227115,-0.210748c0.193188,-0.903619 0.613888,-0.43185 0.497805,0.557075c-0.11564,0.818054 -0.11564,0.818054 0.227547,0.516844c0.193165,-0.130381 0.343175,-0.471741 0.343175,-0.687442c0,-0.215918 0.116083,-0.472014 0.270293,-0.562231c0.304617,-0.170531 0.648235,0.476721 0.536352,0.948694c-0.038547,0.215714 -0.038547,0.386503 0.072905,0.386503c0.077525,0 0.15463,-0.125456 0.15463,-0.215905c0,-0.125483 0.188977,-0.170599 0.4207,-0.085265c0.497397,0.130381 0.570302,0.476653 0.150022,0.687415c-0.111463,0.090449 -0.227535,0.301211 -0.227535,0.476952c0,0.301211 0.077513,0.301211 0.497805,0c0.686373,-0.516871 0.991002,-0.476952 1.107085,0.085265c0.077093,0.301211 0.227523,0.431823 0.381733,0.301211c0.154618,-0.045102 0.497805,0.130612 0.763898,0.431578c0.231723,0.256095 0.57491,0.471782 0.729528,0.471782c0.227535,0 0.227535,0.215932 0.15001,0.818313c-0.077093,0.647524 -0.077093,0.732789 0.15463,0.47181c0.304628,-0.426707 0.420292,-0.386544 0.532175,0.215633c0.038547,0.301211 0.308817,0.517116 0.613457,0.647497c0.343187,0.085565 0.532175,0.301197 0.532175,0.557306c0,0.261007 0.11564,0.561986 0.231723,0.732816c0.30464,0.30117 0.227115,1.204531 -0.116083,1.505728c-0.11564,0.090218 -0.26607,0.045116 -0.304628,-0.085265c-0.077093,-0.130639 -0.343187,-0.130639 -0.841003,0c-0.802445,0.300939 -0.952455,0.386476 -0.763887,0.777864c0.116072,0.255864 1.45068,0.170599 2.1798,-0.130612c0.227535,-0.130395 0.30464,0 0.30464,0.602422c0,0.431551 -0.077105,0.77298 -0.192757,0.77298c-0.077525,0 -0.15043,0.130367 -0.15043,0.346272c0,0.517088 0.188988,0.471741 0.686793,-0.130408c0.265662,-0.346272 0.42028,-0.43181 0.609268,-0.215864c0.192757,0.215864 0.231723,0.215864 0.231723,-0.130408c0,-0.21102 -0.077525,-0.386476 -0.193165,-0.386476c-0.072917,0 -0.150442,-0.17083 -0.150442,-0.341429c0,-0.215878 0.111883,-0.386476 0.266082,-0.386476c0.116072,0 0.270282,0.085265 0.270282,0.210762c0,0.130667 0.15043,0.301197 0.343607,0.346313c0.265673,0.130639 0.343187,0.301211 0.304628,0.818082c-0.077513,0.988857 0.077117,1.290095 0.647827,1.119524c0.270282,-0.085565 0.42028,0 0.30464,0.170571c-0.034358,0.085265 0,0.301211 0.077105,0.391361c0.309237,0.256122 0.193165,0.858313 -0.150022,0.858313c-0.4207,0 -0.536363,0.215864 -0.308817,0.602381c0.154198,0.215905 0.27027,0.255864 0.42028,0.085293c0.347795,-0.431578 0.420712,-0.085293 0.459258,1.636408c0,0.863129 0.077105,1.550843 0.15421,1.550843c0.188977,0 0.116072,0.948694 -0.15421,1.33517c-0.15043,0.215673 -0.15043,0.426422 -0.038547,0.602136c0.27027,0.386517 0,1.505809 -0.343618,1.505809c-0.304617,0 -0.879538,0.818054 -0.879538,1.204558c0,0.472041 -0.493197,0 -0.609268,-0.516884c-0.115652,-0.471769 -0.115652,-0.471769 -0.193177,-0.130612c-0.072905,0.391633 0.343607,1.59619 0.690993,1.937551c0.227523,0.261048 -0.193177,0.692599 -0.497817,0.516884c-0.15463,-0.085265 -0.227535,-0.341129 -0.227535,-0.60215c0,-0.732748 -0.956655,-2.579945 -1.681995,-3.272517c-0.385922,-0.341429 -0.72912,-0.727905 -0.72912,-0.858272c0,-0.26102 -1.223145,-1.07419 -1.909518,-1.335197c-0.382165,-0.130612 -0.497817,-0.085279 -0.497817,0.261007c0,0.255864 -0.072905,0.341129 -0.227535,0.255864c-0.343187,-0.170599 -0.497805,0.215946 -0.193165,0.602422c0.4207,0.471769 0.347795,1.033959 -0.111463,0.818054c-0.308828,-0.130381 -0.347387,-0.085306 -0.231723,0.64751c0.038547,0.426667 0.116072,0.988857 0.116072,1.244721c0,0.26102 0.077093,0.431619 0.154198,0.431619c0.111895,0 0.15043,-0.085306 0.072917,-0.215673c-0.038547,-0.130639 0.038978,-0.256109 0.193165,-0.256109c0.116083,0 0.227535,0.170803 0.227535,0.341374c0,0.175741 -0.150418,0.346272 -0.4207,0.301238c-0.227115,0 -0.420292,-0.125497 -0.420292,-0.210789c0,-0.39166 -1.02998,-3.056871 -1.334608,-3.448258c-0.343198,-0.426707 -0.115663,-0.557075 -2.827638,1.465565c-0.42028,0.301211 -0.879538,0.948694 -1.111262,1.420503c-0.188988,0.471741 -0.493617,0.948694 -0.647827,1.033959c-0.154618,0.085306 -0.72534,0.77298 -1.223157,1.505769c-2.141253,3.22717 -1.793458,3.613673 -1.643437,10.204108c0.648235,4.993959 0.648235,4.993959 0.648235,4.993959c-1.527785,0 -1.527785,0 -1.527785,0c-1.261283,0 -1.261283,0 -1.261283,0c0.115652,-4.607741 0.115652,-4.607741 0.115652,-4.607741c0.077093,-0.386218 0.116072,-1.16434 0.15463,-1.595959c0.038547,-0.256095 -1.072727,-1.375388 -1.034168,-1.631224c0,-0.215905 1.14982,0.386517 1.14982,0.170571c0.188977,-3.141905 0,-5.641483 -0.497817,-6.971755c-0.115652,-0.818095 -1.072715,-3.448 -1.222725,-3.448c-0.038558,0 -0.308828,-0.256095 -0.57491,-0.557306c-0.45927,-0.561959 -0.647827,-0.602177 -3.209792,-0.77298c-2.750522,-0.175483 -2.750522,-0.175483 -2.750522,-0.175483c-0.652015,0.602177 -0.652015,0.602177 -0.652015,0.602177c-0.381733,0.391619 -0.763887,0.647497 -0.875362,0.647497c-0.231723,0 -1.188787,0.903578 -1.60489,1.420422c-0.038547,0 -0.077093,-0.045034 -0.077093,-0.085265c-0.038558,0 -0.038558,0 -0.038558,-0.045102c-0.038547,-0.125456 -0.077513,-0.256095 -0.154618,-0.386476c0.231723,-0.215905 0.4207,-0.346517 0.497805,-0.30117c0.115652,0.085265 0.227535,0 0.227535,-0.215946c0,-0.215673 -0.227535,-0.301197 -0.836803,-0.215673c-0.72954,0.130408 -0.918517,0.175483 -1.034168,0.687456c-0.188988,0.261007 -0.227535,0.64751 -0.115652,0.948721c-0.038978,0.386476 -0.038978,0.647483 0,0.647483c0.038547,0 0.077093,-0.085265 0.192757,-0.175714c0,0.045116 0.038547,0.090449 0.077513,0.130612c-0.382153,0.130381 -0.57533,0.516884 -0.536363,0.903361c-0.193165,0.175714 -0.382153,0.261007 -0.613865,0.391388c0,0 0,-0.045075 -0.03437,-0.045075c0.15043,-0.386476 0.227535,-0.818095 0.266082,-1.465578c0.077525,-0.727905 0.038547,-1.204558 -0.077093,-1.204558c-0.077105,0 -0.154618,0.175714 -0.154618,0.431537c0.038535,0.215946 -0.03437,0.431619 -0.18858,0.47181c-0.116072,0.045075 -0.193165,-0.04019 -0.193165,-0.255864c0,-0.517116 -0.150022,-0.517116 -0.493628,-0.045333c-0.154198,0.175714 -0.458838,0.386503 -0.72492,0.476952c-0.347795,0.125456 -0.459258,0.04015 -0.613877,-0.431619c-0.115652,-0.386476 -0.192757,-0.818313 -0.115652,-0.988884c0.038547,-0.215905 0.038547,-0.391388 -0.111463,-0.391388c-0.420712,0 -0.116072,-0.687714 0.381733,-0.818326l-0.000001,-0.000006zm3.286885,-9.897755c-0.231723,-0.045075 -0.420712,-0.170571 -0.497805,-0.346286c-0.038558,-0.256095 -0.077105,-0.256095 -0.077105,0c0,0.175714 -0.154618,0.301211 -0.30464,0.346286c-0.27027,0 -0.27027,0.045102 0.038558,0.215946c0.188557,0.085265 0.381733,0.215633 0.42028,0.215633c0.034358,0 0.227535,-0.130367 0.420712,-0.215633c0.343187,-0.215946 0.343187,-0.215946 0,-0.215946zm30.302267,6.931564c0.072917,0.085306 0.150022,-0.045333 0.150022,-0.261007c0,-0.170803 -0.077105,-0.341401 -0.150022,-0.341401c-0.11606,0 -0.193165,0.085293 -0.193165,0.210762c0,0.130639 0.077105,0.306354 0.193165,0.391646zm-0.27027,0.386503c-0.038547,-0.130639 -0.227535,-0.301197 -0.382153,-0.301197c-0.111463,0 -0.188568,0.170558 -0.111463,0.301197c0.034358,0.130381 0.188977,0.215687 0.343187,0.215687c0.15043,0 0.188977,-0.085306 0.15043,-0.215687l-0.000001,0zm-0.343187,1.93732c0.115652,0 0.27027,-0.045075 0.27027,-0.085265c0,-0.090449 -0.154618,-0.175714 -0.27027,-0.26102c-0.15043,-0.085293 -0.266093,-0.04019 -0.266093,0.085306c0,0.130612 0.115663,0.26098 0.266093,0.26098l0,-0.000001zm0.30464,-4.090571c0.154198,-0.085333 0.231712,-0.215932 0.192757,-0.341429c-0.115663,-0.306082 -0.76349,-0.306082 -0.76349,0c0,0.341429 0.227127,0.47181 0.570733,0.341429zm-2.098507,-3.227469c-0.193177,0.130639 -0.308828,0.386503 -0.270293,0.517116c0.193177,0.34117 0.420723,0.255864 0.613468,-0.301211c0.188988,-0.517116 0.111883,-0.602381 -0.343175,-0.215905zm-0.72954,6.630367c0.99561,1.159442 1.034168,1.204558 1.034168,0.818082c0,-0.215673 -0.077105,-0.391388 -0.193177,-0.391388c-0.111452,0 -0.304628,-0.215946 -0.42028,-0.471769c-0.111475,-0.256136 -0.343187,-0.517156 -0.532175,-0.517156c-0.347375,0 -0.347375,0.045347 0.111463,0.562231l0.000001,0zm-0.802037,-2.027796c0.231315,0 0.343198,-0.085265 0.192768,-0.125469c-0.115652,-0.085293 -0.30464,-0.085293 -0.420292,0c-0.116083,0.040204 0,0.125469 0.227523,0.125469l0.000001,0zm-1.107073,-5.852245c0.115652,0.130408 0.458838,0.30098 0.763467,0.386517c0.536375,0.130367 0.574922,0.130367 0.270282,-0.215905c-0.347375,-0.426707 -1.29983,-0.557075 -1.033748,-0.170612l-0.000001,0zm-2.330242,-7.142285c-0.115652,0.125456 -0.154198,0.386476 -0.115652,0.557034c0.077105,0.346313 0.30464,0.045116 0.30464,-0.471769c0,-0.26102 -0.038558,-0.301211 -0.188988,-0.085265zm1.145632,9.295578c0.30464,0.215646 0.420712,0.215646 0.575342,-0.085537c0.304628,-0.471796 0.111452,-0.687442 -0.45927,-0.386463c-0.459258,0.210993 -0.459258,0.210993 -0.116072,0.472zm-0.763467,-2.153292c0.57491,-0.471728 0.57491,-0.471728 0.115652,-0.471728c-0.308828,0 -0.536363,0.170531 -0.652015,0.471728c-0.072917,0.30098 -0.15043,0.47181 -0.111883,0.47181c0,0 0.30464,-0.256122 0.648247,-0.47181l-0.000001,0zm-0.841003,6.97668c0.265662,0.47181 0.724932,0.47181 0.57491,-0.045102c-0.038547,-0.170803 -0.077513,-0.386476 -0.077513,-0.431823c0,-0.04019 -0.15421,-0.04019 -0.343187,0.045347c-0.308828,0.085293 -0.308828,0.215673 -0.15421,0.431578zm-1.184598,-1.766775c0.304628,0.471796 0.459258,0.516871 0.802445,0.170599c0.227535,-0.215673 0.227535,-0.215673 0,-0.255864c-0.115652,0 -0.420292,-0.045347 -0.686373,-0.130639c-0.382153,-0.170571 -0.382153,-0.170571 -0.116072,0.215905l0,-0.000001zm-0.038547,-4.69302c0.193165,0 0.4207,-0.687673 0.30464,-0.903347c-0.150022,-0.215905 -0.45885,0.130367 -0.45885,0.516871c0,0.215918 0.077105,0.386476 0.15421,0.386476zm-1.870563,2.926231c-0.231723,0.175714 -0.193165,0.215946 0.111475,0.215946c0.193165,0 0.42028,-0.085565 0.497805,-0.215946c0.11564,-0.341361 -0.266093,-0.341361 -0.60928,0zm0.038558,3.789428c0.034358,0.045347 0.15001,-0.045102 0.266082,-0.255864c0.11564,-0.175714 0.45885,-0.391619 0.72492,-0.476925c0.343187,-0.130408 0.497817,-0.341156 0.497817,-0.64751c0,-0.727605 -0.536363,-0.511973 -1.107097,0.431837c-0.231712,0.476694 -0.42028,0.863197 -0.381722,0.948463l0,-0.000001zm-0.4207,-1.982449c0.343175,-0.471741 0.343175,-0.557306 0.072893,-0.687687c-0.304628,-0.170599 -0.531743,0.215946 -0.531743,0.903361c-0.038967,0.517116 -0.038967,0.517116 0.45885,-0.215673l0,-0.000001zm-0.613468,-5.079483c0.038547,0.346272 0.115652,0.301197 0.343175,-0.341401c0.270293,-0.687456 0.270293,-0.777905 0.038558,-0.777905c-0.15001,0 -0.30464,0.130408 -0.343187,0.346327c-0.077105,0.170558 -0.077105,0.562218 -0.038547,0.77298l0.000001,-0.000001zm-0.188988,-3.528422c0,0.175483 0.072905,0.602177 0.15043,0.903361c0.115652,0.602408 0.115652,0.602408 0.231723,0.085293c0.15001,-0.516844 0,-1.289823 -0.231723,-1.289823c-0.111883,0 -0.15043,0.13034 -0.15043,0.30117l0,-0.000001zm-2.677197,1.420231c-0.188977,0.301211 -0.188977,0.602422 -0.038967,1.505769c0.077525,0.647497 0.270702,1.295007 0.382153,1.420503c0.193177,0.215905 0.231723,0 0.27027,-1.334966c0,-1.631265 -0.193165,-2.14834 -0.613457,-1.591306l0.000001,0zm0.343187,4.562639c0.038558,0.085306 0.115652,-0.085293 0.077105,-0.341388c0,-0.26102 -0.038547,-0.301211 -0.115652,-0.130381c-0.03437,0.170571 -0.03437,0.386476 0.038547,0.471769zm1.377355,-4.045524c-0.038547,0.085306 -0.038547,0.687714 0.077105,1.334966c0.116072,1.119524 0.15043,1.164599 0.188988,0.346517c0.038547,-1.335197 -0.038558,-1.98268 -0.266093,-1.681483zm-1.30025,12.141469c0.231723,-0.517116 0.613468,-1.380313 0.87955,-1.897388c0.304628,-0.557116 0.497805,-1.289864 0.57491,-2.022653c0.111883,-1.159483 0.111883,-1.159483 0.111883,-1.159483c-0.459258,0.642599 -0.459258,0.642599 -0.459258,0.642599c-0.227535,0.346313 -0.381745,0.732789 -0.381745,0.863197c0,0.341374 -0.72534,2.494626 -0.952875,2.881129c-0.115652,0.215633 -0.308828,0.692599 -0.343187,1.033959c-0.193177,0.98868 0.15043,0.818082 0.570722,-0.341361l0,0.000001zm-2.711975,4.432c0.116072,0.858245 0.116072,0.858245 0.497817,-0.988898c0.227535,-0.993823 0.570722,-2.58483 0.802445,-3.573741c0.304628,-1.249673 0.4207,-2.283633 0.4207,-3.744286c0,-1.897197 -0.038967,-1.937388 -0.343595,-1.721442c-0.690573,0.557061 -1.072727,2.107905 -1.226937,5.119401c-0.072905,1.551143 -0.15043,3.101986 -0.227523,3.443388c-0.038558,0.346286 0,0.993796 0.077093,1.465578zm0.077525,-11.017292c0.15001,0.426694 0.30464,0.77298 0.30464,0.77298c0.038547,0 0.227103,-0.26102 0.381733,-0.602381c0.193165,-0.300966 0.497805,-0.647252 0.613468,-0.772748c0.455058,-0.391619 0.57071,-1.596177 0.188977,-2.414258c-0.30464,-0.732789 -1.145632,-1.551116 -1.300262,-1.290095c-0.077093,0.085293 -0.188557,0.903619 -0.266082,1.852082c-0.154198,1.420463 -0.154198,1.852272 0.077525,2.454422l0.000001,-0.000002zm-0.231723,-9.857768c0.077105,0.085537 0.154198,0.04019 0.154198,-0.090177c0,-0.17083 -0.077093,-0.341429 -0.154198,-0.426707c-0.116072,-0.090435 -0.188988,-0.045102 -0.188988,0.125497c0,0.130381 0.072917,0.301211 0.188988,0.391388l0,-0.000001zm-12.379454,11.574299c0.532163,0.045333 0.532163,0.045333 0.532163,0.045333c0.536363,0 1.072727,-0.557306 1.072727,-1.033959c0,-0.301211 -0.038547,-0.301211 -1.60489,0.988626zm0.227535,-1.204571c0,0.13068 0.077105,0.26102 0.193177,0.26102c0.188568,0 0.72492,-0.77298 0.609268,-0.903347c-0.116072,-0.175714 -0.802445,0.386463 -0.802445,0.642327zm0.4207,-2.966381c0.574922,0.858476 0.841003,0.943769 1.145632,0.386463c0.308828,-0.516844 0.038558,-0.863156 -0.879958,-0.988653c-0.763478,-0.130639 -0.763478,-0.130639 -0.265673,0.60219l-0.000001,0zm-0.4207,-2.414041c0,0.090177 0.27027,0.300939 0.57491,0.476653c1.411725,0.818095 1.681995,0.818095 1.643437,0.040231c0,-0.47181 -0.57491,-1.505796 -0.802445,-1.505796c-0.27027,0 -1.415902,0.818082 -1.415902,0.988912zm2.064148,6.113251c0.420292,0 0.458838,-0.130408 0.115652,-0.34117c-0.154618,-0.045333 -0.30464,0 -0.343187,0.125497c-0.077525,0.13034 0.038547,0.215673 0.227535,0.215673zm0.30464,-10.113673c-0.266093,-0.215932 -0.6097,-0.301197 -0.763898,-0.215932c-0.266082,0.17083 -0.227535,0.215932 0.154198,0.346272c0.188988,0.085565 0.575342,0.170844 0.763898,0.211034c0.227535,0 0.227535,-0.085537 -0.154198,-0.341374zm-0.034358,1.550843c0.227103,0 0.266082,-0.045102 0.111463,-0.175483c-0.111463,-0.040163 -0.266093,-0.040163 -0.343198,0.045116c-0.038547,0.085265 0.077105,0.170599 0.231735,0.130367zm0.227103,0.988925c-0.536352,0 -0.536352,0.04015 -0.227103,0.386463c0.381733,0.386476 0.493197,0.431551 0.647827,0.170571c0.26607,-0.34117 0.077093,-0.557034 -0.420723,-0.557034l-0.000001,0zm0.76391,-4.863619c-0.15463,-0.215905 -0.193177,0.170599 -0.115663,0.642367c0.038547,0.301211 0.192757,0.56219 0.270282,0.56219c0.15001,0 0.038547,-0.948694 -0.154618,-1.204558l-0.000001,0.000001zm1.222725,5.681632c-0.077093,0.040231 0.116072,0.301211 0.343607,0.517143c0.231723,0.215673 0.42028,0.300952 0.42028,0.170571c0,-0.30117 -0.647815,-0.863388 -0.763887,-0.687714zm-0.956655,0.301211c-0.343187,0.301238 -0.15001,1.074177 0.347387,1.204585c0.266082,0.085279 0.686793,0.431592 0.952875,0.772952c0.231723,0.346313 0.42028,0.476952 0.42028,0.346313c0,-0.431578 -1.527365,-2.499565 -1.720542,-2.32385zm1.566343,3.573782c-0.227523,-0.692857 -0.493617,-1.034027 -0.991433,-1.249932c-0.381733,-0.170571 -0.763887,-0.26098 -0.879538,-0.215646c-0.116072,0.045075 0.343187,0.60215 0.995622,1.249646c1.222725,1.119292 1.222725,1.119292 0.87535,0.215932l-0.000001,0zm2.02937,-6.630394c-0.077105,0 -0.15463,0.170599 -0.15463,0.34117c0,0.215905 0.077525,0.346313 0.15463,0.346313c0.111463,0 0.188988,-0.130408 0.188988,-0.346313c0,-0.170571 -0.077525,-0.34117 -0.188988,-0.34117zm-0.347375,3.528422c0,0.30117 0.652015,0.085293 0.918097,-0.301211c0.381745,-0.647483 0.343187,-0.818082 -0.154618,-0.818082c-0.343187,0 -0.763478,0.602435 -0.763478,1.119292l-0.000001,0.000001zm1.111273,-9.295619c-0.116072,0.557075 -0.193177,1.028843 -0.154618,1.07419c0.11606,0.170599 0.420712,-1.119265 0.420712,-1.636381c0,-0.215673 -0.116083,0.045347 -0.266093,0.56219l-0.000001,0.000001zm1.986635,8.693197c-0.193177,0 -0.343198,0.085565 -0.343198,0.256095c0,0.130408 0.111463,0.215946 0.227115,0.215946c0.154618,0 0.30464,-0.085537 0.343607,-0.215946c0.077105,-0.170531 -0.038967,-0.256095 -0.227523,-0.256095l-0.000001,0zm-0.45927,8.09102c0.227535,0.778136 0.570722,1.505769 0.763898,1.681483c0.193177,0.130408 0.57491,0.732816 0.802445,1.335197c0.227535,0.602177 0.459258,1.073959 0.497817,1.073959c0.188557,0 -0.193177,-3.96 -0.459258,-5.164789c-0.231735,-1.033728 -0.304652,-1.982449 -0.266093,-3.488218c0.034358,-1.119265 0,-2.108177 -0.077093,-2.193456c-0.038558,-0.085293 -0.30464,-0.085293 -0.536363,0c-0.420712,0.170571 -0.459258,0.301211 -0.459258,1.249905c0,0.727646 -0.077117,1.119292 -0.266093,1.289823c-0.536352,0.386517 -0.497805,2.579959 0,4.216095l-0.000002,0.000001zm-1.107073,-5.766925c-0.077105,-0.647497 -0.154198,-0.732789 -0.57491,-0.732789c-0.497817,0 -0.497817,0.045102 -0.459258,0.948463c0,0.557306 0.077513,1.204789 0.11606,1.505755c0.038558,0.301211 0.188988,0.602381 0.343198,0.647497c0.304628,0.215932 0.647815,-1.289823 0.57491,-2.368925l0,-0.000001zm-0.57491,4.346462c-0.343198,-0.516884 -0.57491,-1.073959 -0.60928,-1.204558c0,-0.170571 -0.193165,-0.60215 -0.420292,-0.988653c-0.231723,-0.386476 -0.497805,-0.863401 -0.613877,-1.034c-0.381733,-0.602381 -0.30464,-0.085265 0.116072,1.249673c0.266082,0.903578 0.724932,1.721673 1.261283,2.409347c0.991422,1.164367 1.107085,0.948503 0.266093,-0.43181l0.000001,0.000001zm-0.60928,2.113061c0.416103,0 0.381745,-0.045075 -0.193165,-0.732748c-0.381745,-0.431619 -0.647827,-0.903388 -0.647827,-1.119306c0,-0.170558 -0.497817,-0.777891 -1.072715,-1.334966c-0.570733,-0.562177 -1.107097,-1.119252 -1.18419,-1.290054c-0.077525,-0.215673 -0.116072,-0.215673 -0.116072,0.04019c0,0.26102 -0.188568,0.30117 -0.802445,0.170571c-0.420292,-0.085306 -0.763478,-0.085306 -0.763478,-0.039959c0,0.085293 0.154198,0.602177 0.308828,1.119252c0.266093,0.858286 0.381733,1.034027 1.222737,1.37517c0.532175,0.215905 1.373155,0.732775 1.909518,1.119252c0.497817,0.39166 1.107085,0.692599 1.338808,0.692599l0.000001,-0.000001zm-5.96449,1.460653c0.154618,0 0.382153,-0.085265 0.536352,-0.215864c0.266093,-0.30098 0.038978,-0.30098 -0.458838,0c-0.227535,0.130599 -0.266082,0.170789 -0.077513,0.215864l-0.000001,0zm-0.420292,-1.074177c0.381745,-0.175456 1.60489,-0.346286 2.716163,-0.346286c2.098098,-0.04019 2.518798,-0.170531 1.677795,-0.431578c-0.26607,-0.085265 -0.87535,-0.301211 -1.373155,-0.516884c-0.87955,-0.386476 -2.677617,-0.256095 -2.866185,0.175524c-0.038967,0.085497 -0.231723,0.130599 -0.4207,0.085497c-0.381745,-0.130612 -0.763898,0.215701 -0.87955,0.903388c-0.154618,0.557034 0.115652,0.602381 1.145632,0.13034l0,-0.000001zm-3.055162,0.988912c0.077105,0.346313 0.459258,0.386476 0.763898,0.085265c0.188557,-0.170558 0.188557,-0.255823 0,-0.516844c-0.154618,-0.256136 -0.266082,-0.256136 -0.497805,-0.04019c-0.154618,0.125497 -0.266093,0.34117 -0.266093,0.471769zm-1.222737,3.011537c0.150022,0 0.227127,0.130408 0.150022,0.386503c-0.03437,0.175714 -0.150022,0.346286 -0.227535,0.346286c-0.115652,0 -0.188568,-0.170571 -0.188568,-0.346286c0,-0.210762 0.111463,-0.386503 0.266082,-0.386503l-0.000001,0z" id="svg_2" stroke="#000000"/>
 </g>
</svg>