<svg width="100" height="100" xmlns="http://www.w3.org/2000/svg">
 <!-- Created with Method Draw - http://github.com/duopixel/Method-Draw/ -->
 <g>
  <title>background</title>
  <rect fill="none" id="canvas_background" height="102" width="102" y="-1" x="-1"/>
 </g>
 <g>
  <title>Layer 1</title>
  <path stroke="#000000" id="svg_1" d="m11.939867,25.781088c-0.398598,0 -0.603477,-0.413025 -0.603477,-0.908315c0,-0.412929 0.102424,-0.813835 0.398598,-0.813835c0.204879,0 0.513298,0.400907 0.615722,0.813835c0.204879,0.601216 0,0.908315 -0.410843,0.908315zm68.13614,23.566666c0.911927,0 1.116775,0.105926 0.603477,0.81374c-0.296174,0.495291 -0.911896,0.908219 -1.20807,0.908219c-0.308388,0 -0.615722,-0.412929 -0.615722,-0.908219c0,-0.50744 0.410874,-0.81374 1.220315,-0.81374zm-63.666839,-28.827341c-0.911896,-0.200405 -1.014351,-1.215222 0,-1.521617c0.513267,-0.094352 0.809472,0.200373 0.809472,0.813835c0,0.507376 -0.296205,0.802229 -0.809472,0.707782zm-11.366987,32.058863c1.220315,-0.294885 1.220315,-0.506833 0.809472,-1.203104c-0.307334,-0.506833 -0.409758,-1.120231 -0.204879,-1.320668c0.102424,-0.306939 0.615722,0 0.911896,0.60128c0.410843,0.813835 0.718146,0.920401 1.527618,0.412929c0.502169,-0.306363 0.911896,-0.507312 0.911896,-0.200373c0,0.200373 0.308419,0 0.707017,-0.412929c0.615753,-0.60128 0.718177,-1.922492 0.102455,-2.630338c-0.501053,-0.60128 -3.044107,-0.400843 -3.751124,0.306363c-0.409758,0.507472 -0.718177,0.401482 -1.116775,-0.506737c-0.615722,-1.510139 -0.615722,-1.722151 0.809441,-1.816502c1.220315,0 1.220315,0 0.204879,-0.613398c-0.512182,-0.294885 -1.01432,-0.908219 -1.01432,-1.309126c0,-1.014752 1.414034,-1.616033 2.029756,-0.908187c0.204879,0.294821 0.603508,0.60128 1.014351,0.60128c0.809472,0 4.674149,-3.432087 4.674149,-4.139933c0,-0.306907 0.399714,-0.50728 0.809472,-0.306907c0.502138,0.106533 1.414065,-0.200373 2.338206,-0.707846c1.310494,-0.813772 1.310494,-0.908219 0.603477,-2.228887c-0.501053,-0.908219 -1.116775,-1.215222 -2.541969,-1.215222c-1.618913,0 -2.029756,0.200469 -2.530809,1.415691c-0.205995,0.81374 -0.821686,1.415052 -1.220315,1.415052c-0.707017,0 -0.911896,-0.907676 -0.204879,-1.415052c0.307303,-0.200469 0.512182,-0.908219 0.512182,-1.616065c0,-1.108721 -0.204879,-1.309126 -1.527618,-1.014209c-1.322739,0.200373 -1.322739,0.105926 -1.014351,-1.415755c0.204879,-0.908187 0.501053,-1.721959 0.707048,-1.816406c0.204879,-0.105926 0.409727,-1.014209 0.409727,-1.922428c0,-1.816598 0.604593,-2.122961 1.722484,-0.813835c0.512151,0.707814 0.820601,0.813835 1.01432,0.200373c0.204879,-0.400843 0.923025,-0.495291 2.040916,-0.294917c1.516489,0.400907 1.618913,0.294917 1.414034,-0.908219c-0.102424,-0.70775 -0.205964,-1.521585 -0.308388,-1.721959c0,-0.306459 -0.501053,-0.707846 -1.105646,-1.014305c-1.220315,-0.50728 -1.527618,-1.721959 -0.410843,-1.721959c0.308419,0 0.604562,-0.200469 0.604562,-0.60192c0,-0.306459 0.615753,-0.506833 1.425194,-0.412993c1.117891,0.106533 1.721368,-0.294757 3.248986,-2.417623c1.117891,-1.521681 1.927332,-2.335453 2.029787,-1.922524c0.102424,0.506833 0.615722,0.801654 1.11786,0.801654c0.809472,0 0.911927,-0.294821 0.615753,-1.615489c-0.10354,-0.908283 -0.615753,-2.016876 -0.924141,-2.524348c-0.911927,-1.120678 -0.911927,-2.429804 0,-2.029057c0.718146,0.401482 2.952781,-0.707206 2.952781,-1.41502c0,-0.306939 0.29729,-0.507376 0.707017,-0.507376c0.410874,0 0.604593,0.613366 0.604593,1.415659c0,1.014209 0.204879,1.415116 0.718177,1.120199c0.398598,-0.21198 0.707048,-0.813835 0.707048,-1.214646c0,-1.215286 3.248955,-3.338183 4.058396,-2.736359c0.30845,0.200533 0.615722,0 0.719324,-0.70775c0.296143,-1.415659 2.131064,-2.524348 2.940505,-1.816502c0.410874,0.294821 0.809503,0.200469 0.913043,-0.105926c0.204848,-0.40145 1.01432,-0.707846 1.926216,-0.802357c0.911896,-0.105926 2.132211,-0.507376 2.645509,-0.920305c1.926216,-1.309126 3.853579,-1.214678 4.66302,0.201077c0.513298,1.014145 0.718146,1.014145 0.718146,0.306299c0,-0.908283 0.399745,-1.014209 2.839259,-0.70775c3.864708,0.40145 4.469301,0.40145 5.894495,-0.106022c0.911896,-0.294885 1.220284,-0.200437 1.220284,0.613302c0,0.507472 0.296205,0.908315 0.707048,0.908315c0.307303,0 0.603477,-0.294917 0.603477,-0.601856c0,-0.81374 1.631189,-1.214646 3.056352,-0.81374c1.105646,0.40145 1.20807,0.50728 0.911896,3.232066c-0.102424,1.627607 0,2.736296 0.19375,2.736296c0.204848,0 0.410843,-0.707846 0.410843,-1.722055c0,-1.710512 1.116775,-2.417783 1.527618,-1.014241c0.102455,0.506865 0.398598,0.306395 0.603477,-0.495259c0.513329,-2.123505 1.631189,-1.014848 1.322739,1.309126c-0.307272,1.922428 -0.307272,1.922428 0.604624,1.214582c0.513267,-0.306395 0.911865,-1.108593 0.911865,-1.615489c0,-0.507408 0.30845,-1.109232 0.718208,-1.321244c0.80941,-0.400747 1.722453,1.120295 1.425163,2.229431c-0.102424,0.506929 -0.102424,0.908283 0.193719,0.908283c0.205995,0 0.410874,-0.294821 0.410874,-0.507376c0,-0.294885 0.502138,-0.400907 1.11786,-0.200373c1.321654,0.306395 1.515373,1.120135 0.398629,1.615425c-0.296174,0.212555 -0.604593,0.707846 -0.604593,1.120838c0,0.707846 0.205964,0.707846 1.322739,0c1.823792,-1.214646 2.633233,-1.120838 2.941683,0.200373c0.204848,0.707846 0.604562,1.014784 1.01432,0.707846c0.410843,-0.10599 1.322739,0.306939 2.029787,1.014209c0.615722,0.601824 1.527618,1.108689 1.938461,1.108689c0.604593,0 0.604593,0.50744 0.398598,1.923036c-0.204848,1.521681 -0.204848,1.722055 0.410874,1.108752c0.809441,-1.002763 1.116775,-0.908379 1.414065,0.506737c0.102424,0.707846 0.82057,1.215222 1.630042,1.521617c0.911896,0.201077 1.414065,0.707814 1.414065,1.30967c0,0.613366 0.307272,1.320668 0.615722,1.722119c0.809472,0.70775 0.603477,2.830647 -0.30845,3.538461c-0.307272,0.212012 -0.706986,0.106022 -0.809441,-0.200373c-0.204848,-0.307003 -0.911896,-0.307003 -2.234666,0c-2.132211,0.707206 -2.530809,0.908219 -2.029756,1.82798c0.308419,0.60128 3.854664,0.400907 5.79204,-0.306939c0.604593,-0.306427 0.809472,0 0.809472,1.415691c0,1.014145 -0.204879,1.816502 -0.512182,1.816502c-0.205995,0 -0.399714,0.306363 -0.399714,0.81374c0,1.215158 0.502169,1.108593 1.824908,-0.306459c0.705901,-0.81374 1.116744,-1.014752 1.618913,-0.50728c0.512182,0.50728 0.615722,0.50728 0.615722,-0.306459c0,-0.495898 -0.205995,-0.908219 -0.513267,-0.908219c-0.19375,0 -0.399745,-0.40145 -0.399745,-0.802357c0,-0.507312 0.29729,-0.908219 0.707017,-0.908219c0.308419,0 0.718177,0.200373 0.718177,0.495291c0,0.307067 0.399714,0.707814 0.913012,0.813835c0.705932,0.307003 0.911896,0.707846 0.809441,1.922492c-0.205964,2.323815 0.20491,3.031724 1.721368,2.630881c0.718177,-0.201077 1.116744,0 0.809472,0.400843c-0.091295,0.200373 0,0.707846 0.204879,0.919697c0.821686,0.601888 0.513267,2.017036 -0.398629,2.017036c-1.11786,0 -1.425194,0.50728 -0.82057,1.415595c0.409727,0.507376 0.718146,0.60128 1.116744,0.200437c0.924141,-1.014209 1.117891,-0.200437 1.220315,3.84556c0,2.028354 0.204879,3.644483 0.409758,3.644483c0.502138,0 0.308419,2.229431 -0.409758,3.13765c-0.399714,0.506833 -0.399714,1.002091 -0.102424,1.41502c0.718146,0.908315 0,3.538653 -0.913043,3.538653c-0.80941,0 -2.337059,1.922428 -2.337059,2.830711c0,1.109296 -1.310494,0 -1.618913,-1.214678c-0.307303,-1.108657 -0.307303,-1.108657 -0.513298,-0.306939c-0.193719,0.920337 0.913012,3.751048 1.836068,4.553245c0.604562,0.613462 -0.513298,1.627607 -1.32277,1.214678c-0.410874,-0.200373 -0.604593,-0.801654 -0.604593,-1.415052c0,-1.721959 -2.541969,-6.062873 -4.469301,-7.690416c-1.025449,-0.802357 -1.937376,-1.710576 -1.937376,-2.01694c0,-0.613398 -3.250071,-2.524348 -5.073863,-3.137714c-1.015467,-0.306939 -1.32277,-0.200405 -1.32277,0.613366c0,0.60128 -0.193719,0.801654 -0.604593,0.60128c-0.911896,-0.400907 -1.322739,0.507472 -0.513267,1.415691c1.11786,1.108657 0.924141,2.429804 -0.296174,1.922428c-0.820601,-0.306395 -0.923056,-0.200469 -0.615722,1.521649c0.102424,1.002667 0.308419,2.323815 0.308419,2.925095c0,0.613398 0.204848,1.014305 0.409727,1.014305c0.297321,0 0.399714,-0.200469 0.19375,-0.506833c-0.102424,-0.307003 0.103571,-0.601856 0.513267,-0.601856c0.30845,0 0.604593,0.401386 0.604593,0.802229c0,0.412993 -0.399683,0.81374 -1.11786,0.70791c-0.603477,0 -1.116775,-0.294917 -1.116775,-0.495354c0,-0.920401 -2.736804,-7.183647 -3.546245,-8.103408c-0.911927,-1.002763 -0.307334,-1.309126 -7.513439,3.444077c-1.116744,0.707846 -2.337059,2.229431 -2.952781,3.338183c-0.502169,1.108593 -1.31161,2.229431 -1.721368,2.429804c-0.410843,0.200469 -1.927332,1.816502 -3.250102,3.538557c-5.689616,7.58385 -4.765475,8.492134 -4.366846,23.979658c1.722453,11.735805 1.722453,11.735805 1.722453,11.735805c-4.059543,0 -4.059543,0 -4.059543,0c-3.35141,0 -3.35141,0 -3.35141,0c0.307303,-10.828194 0.307303,-10.828194 0.307303,-10.828194c0.204848,-0.907612 0.308419,-2.7362 0.410874,-3.750504c0.102424,-0.601824 -2.850388,-3.232162 -2.747933,-3.833378c0,-0.507376 3.055236,0.908315 3.055236,0.400843c0.502138,-7.383477 0,-13.257486 -1.32277,-16.383626c-0.307303,-1.922524 -2.850357,-8.102801 -3.248955,-8.102801c-0.102455,0 -0.820601,-0.601824 -1.527618,-1.30967c-1.220346,-1.320604 -1.721368,-1.415116 -8.528875,-1.816502c-7.308529,-0.412385 -7.308529,-0.412385 -7.308529,-0.412385c-1.732497,1.415116 -1.732497,1.415116 -1.732497,1.415116c-1.01432,0.920305 -2.029756,1.521617 -2.325961,1.521617c-0.615722,0 -3.158776,2.123409 -4.264422,3.337991c-0.102424,0 -0.204848,-0.10583 -0.204848,-0.200373c-0.102455,0 -0.102455,0 -0.102455,-0.10599c-0.102424,-0.294821 -0.205964,-0.601824 -0.410843,-0.908219c0.615722,-0.507376 1.11786,-0.814315 1.322739,-0.70775c0.307303,0.200373 0.604593,0 0.604593,-0.507472c0,-0.506833 -0.604593,-0.707814 -2.223506,-0.506833c-1.938492,0.306459 -2.44063,0.412385 -2.747933,1.615521c-0.502169,0.613366 -0.604593,1.521649 -0.307303,2.229495c-0.103571,0.908219 -0.103571,1.521585 0,1.521585c0.102424,0 0.204848,-0.200373 0.512182,-0.412929c0,0.106022 0.102424,0.212555 0.205964,0.306939c-1.015436,0.306395 -1.528734,1.214678 -1.425194,2.122897c-0.513267,0.412929 -1.015436,0.613366 -1.631127,0.919761c0,0 0,-0.105926 -0.091326,-0.105926c0.399714,-0.908219 0.604593,-1.922524 0.707017,-3.444109c0.205995,-1.710576 0.102424,-2.830711 -0.204848,-2.830711c-0.204879,0 -0.410843,0.412929 -0.410843,1.014113c0.102393,0.507472 -0.091326,1.014305 -0.501084,1.108752c-0.308419,0.105926 -0.513267,-0.094448 -0.513267,-0.60128c0,-1.215222 -0.398629,-1.215222 -1.311641,-0.106533c-0.409727,0.412929 -1.219199,0.908283 -1.926216,1.120838c-0.924141,0.294821 -1.220315,0.094352 -1.631158,-1.014305c-0.307303,-0.908219 -0.512182,-1.923036 -0.307303,-2.323878c0.102424,-0.507376 0.102424,-0.919761 -0.296174,-0.919761c-1.117891,0 -0.308419,-1.616129 1.01432,-1.923068zm8.733723,-23.259727c-0.615722,-0.105926 -1.117891,-0.400843 -1.322739,-0.813772c-0.102455,-0.601824 -0.204879,-0.601824 -0.204879,0c0,0.412929 -0.410843,0.707846 -0.809472,0.813772c-0.718146,0 -0.718146,0.10599 0.102455,0.507472c0.501022,0.200373 1.01432,0.506737 1.116744,0.506737c0.091295,0 0.604593,-0.306363 1.117891,-0.506737c0.911896,-0.507472 0.911896,-0.507472 0,-0.507472zm80.517447,16.289179c0.19375,0.200469 0.398629,-0.106533 0.398629,-0.613366c0,-0.401386 -0.204879,-0.802293 -0.398629,-0.802293c-0.308388,0 -0.513267,0.200437 -0.513267,0.495291c0,0.307003 0.204879,0.719931 0.513267,0.920369zm-0.718146,0.908283c-0.102424,-0.307003 -0.604593,-0.707814 -1.015436,-0.707814c-0.296174,0 -0.501053,0.400811 -0.296174,0.707814c0.091295,0.306395 0.502138,0.506865 0.911896,0.506865c0.399714,0 0.502138,-0.200469 0.399714,-0.506865zm-0.911896,4.552702c0.307303,0 0.718146,-0.105926 0.718146,-0.200373c0,-0.212555 -0.410843,-0.412929 -0.718146,-0.613398c-0.399714,-0.200437 -0.707048,-0.094448 -0.707048,0.200469c0,0.306939 0.307334,0.613302 0.707048,0.613302zm0.809472,-9.612844c0.409727,-0.200533 0.615691,-0.50744 0.512182,-0.802357c-0.307334,-0.719292 -2.028702,-0.719292 -2.028702,0c0,0.802357 0.603508,1.108752 1.51652,0.802357zm-5.576032,-7.584554c-0.513298,0.307003 -0.820601,0.908283 -0.718208,1.215222c0.513298,0.80175 1.117922,0.60128 1.630073,-0.707846c0.502169,-1.215222 0.29729,-1.415595 -0.911865,-0.507376zm-1.938492,15.581365c2.645478,2.724689 2.747933,2.830711 2.747933,1.922492c0,-0.506833 -0.204879,-0.919761 -0.513298,-0.919761c-0.296143,0 -0.809441,-0.507472 -1.116744,-1.108657c-0.296205,-0.60192 -0.911896,-1.215318 -1.414065,-1.215318c-0.923025,0 -0.923025,0.106565 0.296174,1.321244zm-2.131126,-4.765321c0.614637,0 0.911927,-0.200373 0.512213,-0.294853c-0.307303,-0.200437 -0.809472,-0.200437 -1.116775,0c-0.30845,0.09448 0,0.294853 0.604562,0.294853zm-2.941652,-13.752777c0.307303,0.306459 1.219199,0.707302 2.02864,0.908315c1.425225,0.306363 1.527649,0.306363 0.718177,-0.507376c-0.923025,-1.002763 -3.453834,-1.309126 -2.746817,-0.400939zm-6.191785,-16.784373c-0.307303,0.294821 -0.409727,0.908219 -0.307303,1.30903c0.204879,0.813835 0.809472,0.106022 0.809472,-1.108657c0,-0.613398 -0.102455,-0.707846 -0.502169,-0.200373zm3.044107,21.844611c0.809472,0.506769 1.117891,0.506769 1.528765,-0.201013c0.809441,-1.108721 0.296143,-1.615489 -1.220346,-0.908187c-1.220315,0.495834 -1.220315,0.495834 -0.308419,1.1092zm-2.02864,-5.060238c1.527618,-1.108561 1.527618,-1.108561 0.307303,-1.108561c-0.820601,0 -1.425194,0.400747 -1.732497,1.108561c-0.19375,0.707302 -0.399714,1.108752 -0.29729,1.108752c0,0 0.809472,-0.601888 1.722484,-1.108752zm-2.234666,16.3952c0.705901,1.108752 1.926247,1.108752 1.527618,-0.10599c-0.102424,-0.401386 -0.205964,-0.908219 -0.205964,-1.014784c0,-0.094448 -0.409758,-0.094448 -0.911896,0.106565c-0.820601,0.200437 -0.820601,0.506833 -0.409758,1.014209zm-3.147647,-4.151923c0.809441,1.108721 1.220315,1.214646 2.132211,0.400907c0.604593,-0.506833 0.604593,-0.506833 0,-0.60128c-0.307303,0 -1.116775,-0.106565 -1.823792,-0.307003c-1.015436,-0.400843 -1.015436,-0.400843 -0.308419,0.507376zm-0.102424,-11.028599c0.513267,0 1.11786,-1.616033 0.809472,-2.122866c-0.398629,-0.507376 -1.21923,0.306363 -1.21923,1.214646c0,0.507408 0.204879,0.908219 0.409758,0.908219zm-4.970354,6.876644c-0.615722,0.412929 -0.513267,0.507472 0.296205,0.507472c0.513267,0 1.116744,-0.201077 1.322739,-0.507472c0.307272,-0.802197 -0.707048,-0.802197 -1.618944,0zm0.102455,8.905158c0.091295,0.106565 0.398598,-0.10599 0.707017,-0.60128c0.307272,-0.412929 1.21923,-0.920305 1.926216,-1.120774c0.911896,-0.306459 1.32277,-0.801718 1.32277,-1.521649c0,-1.709873 -1.425194,-1.203136 -2.941714,1.014816c-0.615691,1.120231 -1.116744,2.028514 -1.014289,2.228887zm-1.11786,-4.658756c0.911865,-1.108593 0.911865,-1.30967 0.193688,-1.616065c-0.809441,-0.400907 -1.412918,0.507472 -1.412918,2.122897c-0.10354,1.215222 -0.10354,1.215222 1.21923,-0.506833zm-1.630073,-11.936786c0.102424,0.81374 0.307303,0.707814 0.911865,-0.802293c0.718208,-1.615521 0.718208,-1.828076 0.102455,-1.828076c-0.398598,0 -0.809472,0.306459 -0.911896,0.813867c-0.204879,0.400811 -0.204879,1.321212 -0.102424,1.816502zm-0.502169,-8.291792c0,0.412385 0.193719,1.415116 0.399714,2.122897c0.307303,1.415659 0.307303,1.415659 0.615722,0.200437c0.398598,-1.214582 0,-3.031085 -0.615722,-3.031085c-0.29729,0 -0.399714,0.306299 -0.399714,0.70775zm-7.113694,3.337544c-0.502138,0.707846 -0.502138,1.415691 -0.10354,3.538557c0.205995,1.521617 0.719293,3.043266 1.015436,3.338183c0.513298,0.507376 0.615722,0 0.718146,-3.13717c0,-3.833474 -0.513267,-5.0486 -1.630042,-3.73957zm0.911896,10.722204c0.102455,0.200469 0.307303,-0.200437 0.204879,-0.802261c0,-0.613398 -0.102424,-0.707846 -0.307303,-0.306395c-0.091326,0.400843 -0.091326,0.908219 0.102424,1.108657zm3.659829,-9.506982c-0.102424,0.200469 -0.102424,1.616129 0.204879,3.13717c0.308419,2.630881 0.399714,2.736807 0.502169,0.814315c0.102424,-3.137714 -0.102455,-4.659299 -0.707048,-3.951485zm-3.45495,28.532456c0.615722,-1.215222 1.630073,-3.243736 2.33709,-4.458862c0.809441,-1.309222 1.322739,-3.031181 1.527618,-4.753235c0.29729,-2.724785 0.29729,-2.724785 0.29729,-2.724785c-1.220315,1.510107 -1.220315,1.510107 -1.220315,1.510107c-0.604593,0.813835 -1.014351,1.722055 -1.014351,2.028514c0,0.802229 -1.927332,5.862371 -2.531925,6.770654c-0.307303,0.506737 -0.820601,1.627607 -0.911896,2.429804c-0.513298,2.323399 0.399714,1.922492 1.516489,-0.802197zm-7.206105,10.415201c0.308419,2.016876 0.308419,2.016876 1.32277,-2.32391c0.604593,-2.335485 1.516489,-6.074351 2.132211,-8.398293c0.809441,-2.936733 1.11786,-5.366537 1.11786,-8.799072c0,-4.458414 -0.10354,-4.552862 -0.912981,-4.04539c-1.834952,1.309094 -2.850388,4.953577 -3.260146,12.030594c-0.193719,3.645186 -0.399714,7.289669 -0.604562,8.091962c-0.102455,0.813772 0,2.335421 0.204848,3.444109zm0.205995,-25.89064c0.398598,1.002731 0.809472,1.816502 0.809472,1.816502c0.102424,0 0.603446,-0.613398 1.01432,-1.415595c0.513267,-0.70727 1.322739,-1.521042 1.630073,-1.815959c1.209155,-0.920305 1.516458,-3.751016 0.502138,-5.673508c-0.809472,-1.722055 -3.044107,-3.645122 -3.454981,-3.031724c-0.204848,0.200437 -0.501022,2.123505 -0.707017,4.352392c-0.409727,3.338087 -0.409727,4.35284 0.205995,5.767892zm-0.615722,-23.165759c0.204879,0.201013 0.409727,0.094448 0.409727,-0.211916c0,-0.40145 -0.204848,-0.802357 -0.409727,-1.002763c-0.308419,-0.212523 -0.502169,-0.10599 -0.502169,0.294917c0,0.306395 0.19375,0.707846 0.502169,0.919761zm-32.893976,27.199606c1.414034,0.106533 1.414034,0.106533 1.414034,0.106533c1.425194,0 2.850388,-1.30967 2.850388,-2.429804c0,-0.707846 -0.102424,-0.707846 -4.264422,2.323271zm0.604593,-2.830743c0,0.307099 0.204879,0.613398 0.513298,0.613398c0.501053,0 1.926216,-1.816502 1.618913,-2.122866c-0.308419,-0.412929 -2.132211,0.908187 -2.132211,1.509468zm1.11786,-6.970996c1.527649,2.017419 2.234666,2.217857 3.044107,0.908187c0.820601,-1.214582 0.102455,-2.028418 -2.338175,-2.323335c-2.028671,-0.307003 -2.028671,-0.307003 -0.705932,1.415148zm-1.11786,-5.672996c0,0.211916 0.718146,0.707206 1.527618,1.120135c3.751155,1.922524 4.469301,1.922524 4.366846,0.094544c0,-1.108752 -1.527618,-3.538621 -2.132211,-3.538621c-0.718146,0 -3.762253,1.922492 -3.762253,2.323942zm5.484737,14.366143c1.116775,0 1.219199,-0.306459 0.307303,-0.80175c-0.410843,-0.106533 -0.809472,0 -0.911896,0.294917c-0.205995,0.306299 0.102424,0.506833 0.604593,0.506833zm0.809472,-23.767135c-0.707048,-0.50744 -1.62006,-0.707814 -2.029787,-0.50744c-0.707017,0.40145 -0.604593,0.50744 0.409727,0.81374c0.502169,0.201077 1.528765,0.401482 2.029787,0.49593c0.604593,0 0.604593,-0.201013 -0.409727,-0.802229zm-0.091295,3.644483c0.603446,0 0.707017,-0.10599 0.296174,-0.412385c-0.296174,-0.094384 -0.707048,-0.094384 -0.911927,0.106022c-0.102424,0.200373 0.204879,0.400907 0.615753,0.306363zm0.603446,2.323974c-1.425163,0 -1.425163,0.094352 -0.603446,0.908187c1.01432,0.908219 1.310494,1.014145 1.721368,0.400843c0.706986,-0.80175 0.204848,-1.30903 -1.117922,-1.30903zm2.029818,-11.429506c-0.410874,-0.507376 -0.513298,0.400907 -0.307334,1.509563c0.102424,0.707846 0.512182,1.321148 0.718177,1.321148c0.398598,0 0.102424,-2.229431 -0.410843,-2.830711zm3.248955,13.351838c-0.204848,0.094544 0.308419,0.707846 0.913012,1.215286c0.615722,0.506833 1.116744,0.707238 1.116744,0.400843c0,-0.70775 -1.721337,-2.028961 -2.029756,-1.616129zm-2.541969,0.707846c-0.911896,0.70791 -0.398598,2.524316 0.923056,2.830775c0.707017,0.200405 1.824908,1.014241 2.531925,1.816438c0.615722,0.813835 1.116744,1.120838 1.116744,0.813835c0,-1.014209 -4.058427,-5.873977 -4.571725,-5.461049zm4.161998,8.398389c-0.604562,-1.628214 -1.31161,-2.429964 -2.63438,-2.93734c-1.01432,-0.400843 -2.029756,-0.613302 -2.337059,-0.506769c-0.308419,0.105926 0.911896,1.415052 2.645509,2.936669c3.248955,2.630338 3.248955,2.630338 2.32593,0.50744zm5.392326,-15.581429c-0.204879,0 -0.410874,0.400907 -0.410874,0.80175c0,0.507376 0.205995,0.813835 0.410874,0.813835c0.296174,0 0.502169,-0.306459 0.502169,-0.813835c0,-0.400843 -0.205995,-0.80175 -0.502169,-0.80175zm-0.923025,8.291792c0,0.70775 1.732497,0.200437 2.439514,-0.707846c1.014351,-1.521585 0.911896,-1.922492 -0.410843,-1.922492c-0.911896,0 -2.028671,1.415723 -2.028671,2.630338zm2.952812,-21.844707c-0.308419,1.309126 -0.513298,2.417783 -0.410843,2.524348c0.308388,0.400907 1.117891,-2.630274 1.117891,-3.845496c0,-0.506833 -0.30845,0.106565 -0.707048,1.321148zm5.278773,20.429016c-0.513298,0 -0.911927,0.201077 -0.911927,0.601824c0,0.306459 0.296174,0.507472 0.603477,0.507472c0.410843,0 0.809472,-0.201013 0.913012,-0.507472c0.204879,-0.400747 -0.10354,-0.601824 -0.604562,-0.601824zm-1.220346,19.0139c0.604593,1.82862 1.516489,3.538557 2.029787,3.951485c0.513298,0.306459 1.527618,1.722119 2.132211,3.137714c0.604593,1.415116 1.220315,2.523804 1.32277,2.523804c0.501022,0 -0.513298,-9.306001 -1.220315,-12.137256c-0.615753,-2.429261 -0.809503,-4.658756 -0.707048,-8.197312c0.091295,-2.630274 0,-4.954216 -0.204848,-5.154622c-0.102455,-0.200437 -0.809472,-0.200437 -1.425194,0c-1.117891,0.400843 -1.220315,0.707846 -1.220315,2.937276c0,1.709969 -0.20491,2.630338 -0.707048,3.031085c-1.425163,0.908315 -1.322739,6.062905 0,9.907825zm-2.941652,-13.552276c-0.204879,-1.521617 -0.409727,-1.722055 -1.527618,-1.722055c-1.32277,0 -1.32277,0.10599 -1.220315,2.228887c0,1.30967 0.205964,2.831255 0.308388,3.538525c0.102455,0.707846 0.502169,1.415595 0.911927,1.521617c0.809441,0.50744 1.721337,-3.031085 1.527618,-5.566975zm-1.527618,10.214188c-0.911927,-1.214678 -1.527618,-2.523804 -1.618944,-2.830711c0,-0.400843 -0.513267,-1.415052 -1.116775,-2.323335c-0.615722,-0.908219 -1.322739,-2.028993 -1.631158,-2.4299c-1.01432,-1.415595 -0.809472,-0.200373 0.308419,2.936733c0.707017,2.123409 1.926247,4.045933 3.35141,5.661966c2.634349,2.736264 2.941683,2.228983 0.707048,-1.014752zm-1.618944,4.965694c1.105646,0 1.014351,-0.105926 -0.513267,-1.721959c-1.014351,-1.014305 -1.721368,-2.122961 -1.721368,-2.63037c0,-0.400811 -1.32277,-1.828044 -2.850357,-3.13717c-1.51652,-1.321116 -2.941714,-2.630242 -3.146562,-3.031628c-0.205995,-0.506833 -0.308419,-0.506833 -0.308419,0.094448c0,0.613398 -0.501053,0.70775 -2.132211,0.400843c-1.116775,-0.200469 -2.028671,-0.200469 -2.028671,-0.093904c0,0.200437 0.409727,1.415116 0.820601,2.630242c0.707048,2.016972 1.01432,2.429964 3.248986,3.23165c1.414065,0.507376 3.648669,1.722023 5.073863,2.630242c1.32277,0.920401 2.941683,1.627607 3.557405,1.627607zm-15.848502,3.432535c0.410843,0 1.015436,-0.200373 1.425163,-0.50728c0.707048,-0.707302 0.103571,-0.707302 -1.219199,0c-0.604593,0.306907 -0.707017,0.401354 -0.205964,0.50728zm-1.116775,-2.524316c1.014351,-0.412321 4.264422,-0.813772 7.217234,-0.813772c5.574947,-0.094448 6.692807,-0.400747 4.458141,-1.014209c-0.706986,-0.200373 -2.32593,-0.707846 -3.648669,-1.214678c-2.33709,-0.908219 -7.11481,-0.601824 -7.615863,0.412481c-0.10354,0.200917 -0.615722,0.306907 -1.11786,0.200917c-1.014351,-0.306939 -2.029787,0.506897 -2.33709,2.122961c-0.410843,1.30903 0.307303,1.415595 3.044107,0.306299zm-8.118001,2.323942c0.204879,0.813835 1.220315,0.908219 2.029787,0.200373c0.501022,-0.400811 0.501022,-0.601184 0,-1.214582c-0.410843,-0.60192 -0.707017,-0.60192 -1.322739,-0.094448c-0.410843,0.294917 -0.707048,0.80175 -0.707048,1.108657zm-3.248986,7.077114c0.398629,0 0.603508,0.306459 0.398629,0.908283c-0.091326,0.412929 -0.398629,0.813772 -0.604593,0.813772c-0.307303,0 -0.501053,-0.400843 -0.501053,-0.813772c0,-0.495291 0.296174,-0.908283 0.707017,-0.908283z" stroke-width="1.5" fill="#ffffff"/>
 </g>
</svg>