<svg width="256" height="256" xmlns="http://www.w3.org/2000/svg">
 <!-- Created with Method Draw - http://github.com/duopixel/Method-Draw/ -->
 <g>
  <title>background</title>
  <rect fill="none" id="canvas_background" height="258" width="258" y="-1" x="-1"/>
  <g display="none" overflow="visible" y="0" x="0" height="100%" width="100%" id="canvasGrid">
   <rect fill="url(#gridpattern)" stroke-width="0" y="0" x="0" height="100%" width="100%"/>
  </g>
 </g>
 <g>
  <title>Layer 1</title>
  <path id="svg_3" d="m205.063077,342.256444c-0.037366,-0.048339 0.0788,-0.073128 0.048758,-0.118117c-0.047911,-0.02878 -0.119689,-0.022057 -0.179401,-0.01986c-0.064498,-0.005324 -0.083383,0.038938 -0.120566,0.057331c-0.07332,-0.015339 -0.047098,-0.079012 0.019767,-0.086072c0.087442,-0.02535 0.183978,-0.010778 0.274802,-0.022011c0.065729,-0.02564 -0.015497,-0.080702 -0.067112,-0.086554c-0.085423,-0.023113 -0.190923,-0.023728 -0.256204,-0.072416c-0.025958,-0.037929 -0.019225,-0.107337 0.050766,-0.120622c0.031721,-0.035955 0.025089,-0.082258 0.016751,-0.12218c0.007117,-0.042453 -0.133524,-0.017588 -0.074512,-0.06111c0.053217,-0.027324 0.121831,-0.044072 0.189055,-0.043403c0.054847,0.001216 0.058586,0.043509 -0.001881,0.033153c-0.061504,0.020701 -0.038606,0.079919 -0.036256,0.117783c0.029676,0.03816 0.11024,0.017978 0.162492,0.023692c0.074332,0.001338 0.10868,0.001489 0.179174,0.017537c0.071298,-0.003532 0.043216,-0.069051 0.000854,-0.073588c-0.065161,-0.009619 -0.129574,-0.034347 -0.166016,-0.072442c-0.020361,-0.044431 0.008493,-0.091254 0.023879,-0.134577c0.04591,-0.094068 0.170662,-0.182771 0.32668,-0.183002c0.095771,0.000966 0.194284,0.048511 0.210654,0.113303c0.012431,0.068127 -0.027862,0.137529 -0.0016,0.204692c0.063767,0.023589 -0.043511,0.059564 -0.045817,0.092121c-0.027194,0.04735 0.03487,0.102337 -0.018271,0.145012c-0.033249,0.031422 -0.110801,0.048779 -0.112164,0.090596c-0.019092,0.037653 -0.107353,0.034823 -0.151446,0.059347c-0.048728,0.009607 -0.075413,0.06423 -0.000782,0.05336c0.072758,-0.001202 0.145176,-0.019486 0.217756,-0.011113c0.051966,0.023782 -0.002254,0.071072 -0.054556,0.048714c-0.027322,0.000281 -0.128193,0.00939 -0.093834,0.029107c0.085945,0.013447 0.179136,0.030848 0.234793,0.080501c0.052159,0.046584 -0.063688,0.057708 -0.086747,0.016754c-0.096462,-0.052764 -0.241527,-0.081218 -0.354858,-0.035117c-0.068557,0.019204 -0.052677,0.068793 -0.05991,0.105704c-0.027899,0.020412 -0.066331,-0.008465 -0.074247,-0.026522l0,0zm0.501304,-0.515767c-0.023121,-0.028952 -0.138461,-0.057501 -0.154148,-0.015806c0.008807,0.042488 0.09811,0.052549 0.14577,0.035203c0.008677,-0.004423 0.012268,-0.012543 0.008378,-0.019397l0,0z" fill-opacity="null" stroke-opacity="null" stroke-width="1.5" stroke="#000" fill="none"/>
  <path id="svg_4" d="m232.457858,89.381186l-32.324176,8.558019c-2.961755,-7.533393 -7.421027,-14.063395 -12.817634,-19.260853l17.093876,-28.880661c1.503063,-2.548294 0.576821,-5.797368 -2.107616,-7.24671c-2.656706,-1.438724 -6.045531,-0.541512 -7.543047,2.001472l-16.217552,27.404774c-3.35,-2.033326 -6.877484,-3.657863 -10.538081,-4.756815c-2.307285,-7.628954 -9.162584,-12.799867 -16.960764,-13.601517c-0.005546,-0.021236 -0.011093,-0.042472 -0.016639,-0.063707c-0.338328,-1.284765 -0.515811,-2.442115 -0.543543,-3.450814c-0.027732,-1.003391 0.066556,-1.86344 0.255132,-2.542985c0.205215,-0.690163 0.438162,-1.247602 0.693295,-1.682936c0.809768,-1.380326 1.885762,-2.282846 3.200249,-2.702253c0.127566,1.491814 0.787583,2.558912 1.952318,3.190676c0.859686,0.467187 1.863576,0.610529 3.028312,0.456569c1.170282,-0.164577 2.085431,-0.80696 2.750994,-1.927147c0.582368,-0.987464 0.704388,-2.06518 0.354967,-3.22253c-0.354967,-1.162659 -1.125911,-2.059871 -2.296192,-2.691635c-0.854139,-0.461878 -1.741557,-0.695472 -2.673345,-0.684854c-0.926242,0.005309 -1.813659,0.180504 -2.667798,0.514968c-0.848593,0.334464 -1.641722,0.849431 -2.379388,1.534285c-0.732119,0.684854 -1.336672,1.438724 -1.830298,2.261611c-0.732119,1.242293 -1.198013,2.633237 -1.38659,4.156904c-0.18303,1.518358 -0.205215,2.999554 -0.049917,4.459514c0.094288,0.849431 0.338328,1.597992 0.521358,2.383716c-2.079884,-0.111488 -4.20414,0.010618 -6.322848,0.573366c-2.673345,0.70609 -5.063825,1.91122 -7.099339,3.466741c-0.288411,-0.913139 -0.543543,-1.826277 -0.998344,-2.750034c-0.643378,-1.321927 -1.458692,-2.580147 -2.429305,-3.801205c-0.987252,-1.215748 -2.129802,-2.176667 -3.427649,-2.882757c-0.854139,-0.456569 -1.780381,-0.801651 -2.778726,-1.029935c-0.998344,-0.228285 -1.952318,-0.276065 -2.861921,-0.143342s-1.763742,0.424716 -2.567964,0.870667c-0.809768,0.445951 -1.442053,1.088334 -1.930133,1.895293c-0.660017,1.120187 -0.831954,2.272228 -0.521358,3.434887c0.321689,1.173277 1.003891,2.038635 2.035513,2.601383c1.164735,0.631764 2.301739,0.732634 3.388825,0.297301c1.087086,-0.435333 1.869123,-1.05648 2.357202,-1.884675c0.660017,-1.114878 0.65447,-2.351863 -0.038825,-3.689717c1.353311,-0.291992 2.75654,-0.042472 4.198593,0.748561c0.449255,0.238903 0.948427,0.610529 1.497517,1.104261c0.537997,0.488423 1.070447,1.178586 1.586258,2.059871c0.521358,0.881285 0.992798,1.953692 1.392136,3.227839c0.072103,0.233594 0.127566,0.520277 0.194123,0.775106c-5.052732,4.395807 -7.526408,11.085077 -6.089901,17.822129c-3.227981,3.100424 -5.945696,6.74236 -8.081044,10.803703l-28.619209,-15.533973c-2.662252,-1.438724 -6.056623,-0.541512 -7.565233,2.001472c-1.503063,2.558912 -0.565729,5.807986 2.096523,7.257328l30.177735,16.362169c-1.835845,7.113986 -2.146441,14.902209 -0.648924,22.812537l-32.324176,8.563328c-2.961755,0.780415 -4.692219,3.710953 -3.871358,6.535311c0.815315,2.813741 3.865812,4.475441 6.827567,3.684408l32.60704,-8.637654c2.789818,5.611555 7.559686,12.104395 13.150415,18.278698l-17.715068,29.937141c-1.508609,2.553603 -0.576821,5.797368 2.096523,7.236092c1.32558,0.727325 2.839735,0.860049 4.20414,0.499041c1.375497,-0.361008 2.601242,-1.215748 3.35,-2.500513l16.056707,-27.1234c14.975167,13.771403 31.5255,21.88878 32.046858,5.590319c8.863081,13.590899 19.140482,-1.794423 24.969705,-21.108366l28.857702,15.645461c1.331126,0.732634 2.850828,0.860049 4.226325,0.499041c1.364404,-0.355699 2.590149,-1.215748 3.344454,-2.500513c1.508609,-2.542985 0.576821,-5.792059 -2.090977,-7.230783l-31.619789,-17.142584c1.61399,-7.989962 2.340563,-15.836583 1.769288,-21.968415l32.645865,-8.637654c2.93957,-0.780415 4.697765,-3.700335 3.860265,-6.524693c-0.820861,-2.824359 -3.882451,-4.48075 -6.833113,-3.700335z" stroke-width="1.5" fill="#aaff56"/>
  <path stroke="#000" id="svg_5" d="m31.107478,74.666861c-0.784338,0 -1.187487,-0.909533 -1.187487,-2.000226c0,-0.909321 0.201544,-1.792169 0.784338,-1.792169c0.403149,0 1.010038,0.882848 1.211582,1.792169c0.403149,1.323955 0,2.000226 -0.808433,2.000226zm134.074336,51.896804c1.794437,0 2.197525,0.233262 1.187487,1.791958c-0.582794,1.090693 -1.794376,2.000014 -2.37717,2.000014c-0.606828,0 -1.211582,-0.909321 -1.211582,-2.000014c0,-1.117448 0.808494,-1.791958 2.401265,-1.791958zm-125.279906,-63.481482c-1.794376,-0.441318 -1.995981,-2.676074 0,-3.350795c1.009977,-0.207774 1.592832,0.441248 1.592832,1.792169c0,1.117307 -0.582855,1.766611 -1.592832,1.558626zm-22.367296,70.597705c2.401265,-0.649375 2.401265,-1.11611 1.592832,-2.649389c-0.604754,-1.11611 -0.806298,-2.466891 -0.403149,-2.90828c0.201544,-0.675918 1.211582,0 1.794376,1.324096c0.808433,1.792169 1.413126,2.02684 3.005958,0.909321c0.988139,-0.674651 1.794376,-1.117166 1.794376,-0.441248c0,0.441248 0.606889,0 1.391227,-0.909321c1.211643,-1.324096 1.413187,-4.233573 0.201605,-5.792339c-0.985943,-1.324096 -5.990017,-0.882707 -7.381244,0.674651c-0.806298,1.117518 -1.413187,0.884115 -2.197525,-1.115899c-1.211582,-3.325519 -1.211582,-3.792395 1.592771,-4.00017c2.401265,0 2.401265,0 0.403149,-1.350781c-1.007842,-0.649375 -1.99592,-2.000014 -1.99592,-2.882862c0,-2.234614 2.782454,-3.55871 3.994036,-1.999944c0.403149,0.649234 1.187548,1.324096 1.995981,1.324096c1.592832,0 9.197519,-7.557894 9.197519,-9.116661c0,-0.675848 0.786534,-1.117096 1.592832,-0.675848c0.988078,0.2346 2.782515,-0.441248 4.600986,-1.558766c2.578714,-1.792029 2.578714,-2.000014 1.187487,-4.908294c-0.985943,-2.000014 -2.197525,-2.676074 -5.001939,-2.676074c-3.185603,0 -3.994036,0.441459 -4.979979,3.117533c-0.405345,1.791958 -1.616866,3.116125 -2.401265,3.116125c-1.391227,0 -1.794376,-1.998817 -0.403149,-3.116125c0.604693,-0.441459 1.007842,-2.000014 1.007842,-3.558781c0,-2.441544 -0.403149,-2.882862 -3.005958,-2.233417c-2.602809,0.441248 -2.602809,0.233262 -1.995981,-3.117674c0.403149,-1.999944 0.985943,-3.791973 1.391288,-3.999958c0.403149,-0.233262 0.806237,-2.233417 0.806237,-4.233432c0,-4.000381 1.189683,-4.675032 3.389404,-1.792169c1.007781,1.558696 1.614731,1.792169 1.99592,0.441248c0.403149,-0.882707 1.816275,-1.090693 4.015996,-0.649445c2.984059,0.882848 3.185603,0.649445 2.782454,-2.000014c-0.201544,-1.558555 -0.405284,-3.350725 -0.606828,-3.791973c0,-0.674862 -0.985943,-1.558766 -2.175626,-2.233629c-2.401265,-1.117096 -3.005958,-3.791973 -0.808433,-3.791973c0.606889,0 1.189622,-0.441459 1.189622,-1.325504c0,-0.674862 1.211643,-1.11611 2.804414,-0.909462c2.199721,0.2346 3.387208,-0.649093 6.393166,-5.323914c2.199721,-3.350936 3.792492,-5.142965 3.994097,-4.233643c0.201544,1.11611 1.211582,1.765344 2.19966,1.765344c1.592832,0 1.794437,-0.649234 1.211643,-3.557513c-0.20374,-2.000155 -1.211643,-4.441418 -1.818471,-5.558936c-1.794437,-2.467877 -1.794437,-5.350739 0,-4.468243c1.413126,0.884115 5.810311,-1.557358 5.810311,-3.116054c0,-0.675918 0.58499,-1.117307 1.391227,-1.117307c0.808494,0 1.189683,1.35071 1.189683,3.117462c0,2.233417 0.403149,3.116265 1.413187,2.466821c0.784338,-0.466806 1.391288,-1.792169 1.391288,-2.674806c0,-2.676214 6.393105,-7.351105 7.985876,-6.025813c0.60695,0.4416 1.211582,0 1.415444,-1.558555c0.582733,-3.117462 4.193384,-5.558936 5.786155,-4.00017c0.808494,0.649234 1.592893,0.441459 1.796633,-0.233262c0.403088,-0.884045 1.99592,-1.558766 3.790296,-1.766893c1.794376,-0.233262 4.195641,-1.117307 5.205679,-2.026629c3.790296,-2.882862 7.582849,-2.674877 9.17562,0.442797c1.010038,2.233277 1.413126,2.233277 1.413126,0.67451c0,-2.000155 0.786595,-2.233417 5.586929,-1.558555c7.604748,0.884045 8.794431,0.884045 11.598845,-0.233473c1.794376,-0.649375 2.401204,-0.441389 2.401204,1.350569c0,1.117518 0.582855,2.000226 1.391288,2.000226c0.604693,0 1.187487,-0.649445 1.187487,-1.325363c0,-1.791958 3.209759,-2.674806 6.014112,-1.791958c2.175626,0.884045 2.37717,1.117096 1.794376,7.117421c-0.201544,3.584198 0,6.025672 0.38125,6.025672c0.403088,0 0.808433,-1.558766 0.808433,-3.792184c0,-3.766767 2.197525,-5.324266 3.005958,-2.233488c0.201605,1.116181 0.784338,0.674721 1.187487,-1.090623c1.010099,-4.676229 3.209759,-2.234826 2.602809,2.882862c-0.604632,4.233432 -0.604632,4.233432 1.189744,2.674665c1.009977,-0.674721 1.794315,-2.441262 1.794315,-3.557513c0,-1.117378 0.60695,-2.442671 1.413248,-2.909547c1.59271,-0.882496 3.389343,2.467032 2.804353,4.909491c-0.201544,1.116321 -0.201544,2.000155 0.381189,2.000155c0.405345,0 0.808494,-0.649234 0.808494,-1.117307c0,-0.649375 0.988078,-0.882848 2.19966,-0.441248c2.600674,0.674721 2.981863,2.46668 0.784399,3.557373c-0.582794,0.468073 -1.189683,1.558766 -1.189683,2.468229c0,1.558766 0.405284,1.558766 2.602809,0c3.588752,-2.674806 5.181523,-2.468229 5.788473,0.441248c0.403088,1.558766 1.189622,2.234685 1.99592,1.558766c0.808433,-0.233403 2.602809,0.675918 3.994097,2.233417c1.211582,1.325293 3.005958,2.441474 3.814391,2.441474c1.189683,0 1.189683,1.117448 0.784338,4.23477c-0.403088,3.350936 -0.403088,3.792184 0.808494,2.441614c1.592771,-2.208211 2.197525,-2.000366 2.782515,1.115899c0.201544,1.558766 1.61467,2.676074 3.207502,3.350795c1.794376,0.442797 2.782515,1.558696 2.782515,2.884059c0,1.35071 0.604632,2.90828 1.211582,3.792325c1.592832,1.558555 1.187487,6.233446 -0.60695,7.792142c-0.604632,0.466877 -1.391166,0.233473 -1.592771,-0.441248c-0.403088,-0.676059 -1.794376,-0.676059 -4.397246,0c-4.195641,1.557358 -4.979979,2.000014 -3.994036,4.025446c0.606889,1.324096 7.584984,0.882848 11.39724,-0.675918c1.189683,-0.674792 1.592832,0 1.592832,3.117533c0,2.233277 -0.403149,4.00017 -1.007842,4.00017c-0.405345,0 -0.786534,0.674651 -0.786534,1.791958c0,2.675933 0.988139,2.441262 3.590948,-0.674862c1.389031,-1.791958 2.197464,-2.234614 3.185603,-1.117096c1.007842,1.117096 1.211582,1.117096 1.211582,-0.674862c0,-1.092031 -0.405345,-2.000014 -1.009977,-2.000014c-0.38125,0 -0.786595,-0.884045 -0.786595,-1.766893c0,-1.117166 0.58499,-2.000014 1.391227,-2.000014c0.606889,0 1.413187,0.441248 1.413187,1.090693c0,0.6762 0.786534,1.558696 1.796572,1.792169c1.389092,0.676059 1.794376,1.558766 1.592771,4.233573c-0.405284,5.117336 0.40321,6.676243 3.387208,5.793536c1.413187,-0.442797 2.197464,0 1.592832,0.882707c-0.179645,0.441248 0,1.558766 0.403149,2.025291c1.616866,1.325434 1.009977,4.44177 -0.784399,4.44177c-2.19966,0 -2.804414,1.117096 -1.61467,3.117322c0.806237,1.117307 1.413126,1.324096 2.197464,0.441389c1.818471,-2.233417 2.199721,-0.441389 2.401265,8.468413c0,4.466694 0.403149,8.025616 0.806298,8.025616c0.988078,0 0.606889,4.909491 -0.806298,6.909505c-0.786534,1.11611 -0.786534,2.206733 -0.201544,3.116054c1.413126,2.000226 0,7.792565 -1.796633,7.792565c-1.59271,0 -4.598729,4.233432 -4.598729,6.233587c0,2.442811 -2.578714,0 -3.185603,-2.674877c-0.604693,-2.441403 -0.604693,-2.441403 -1.010038,-0.675918c-0.381189,2.026699 1.796572,8.260286 3.612908,10.026827c1.189622,1.350921 -1.010038,3.584198 -2.60287,2.674877c-0.808494,-0.441248 -1.189683,-1.765344 -1.189683,-3.116125c0,-3.791973 -5.001939,-13.351219 -8.794431,-16.935276c-2.017819,-1.766893 -3.812256,-3.766907 -3.812256,-4.441558c0,-1.350781 -6.395301,-5.558936 -9.984053,-6.909646c-1.998177,-0.675918 -2.60287,-0.441318 -2.60287,1.35071c0,1.324096 -0.381189,1.765344 -1.189683,1.324096c-1.794376,-0.882848 -2.602809,1.117518 -1.009977,3.117533c2.19966,2.441403 1.818471,5.350739 -0.582794,4.233432c-1.614731,-0.674721 -1.816336,-0.441459 -1.211582,3.350865c0.201544,2.208 0.606889,5.117336 0.606889,6.441432c0,1.350781 0.403088,2.233629 0.806237,2.233629c0.585051,0 0.786534,-0.441459 0.38125,-1.11611c-0.201544,-0.676059 0.203801,-1.325363 1.009977,-1.325363c0.60695,0 1.189683,0.883904 1.189683,1.766611c0,0.909462 -0.786473,1.791958 -2.19966,1.558907c-1.187487,0 -2.197525,-0.649445 -2.197525,-1.090834c0,-2.02684 -5.385324,-15.819307 -6.978095,-17.844739c-1.794437,-2.208211 -0.604754,-2.882862 -14.784509,7.584297c-2.197464,1.558766 -4.598729,4.909491 -5.810311,7.351105c-0.988139,2.441262 -2.58091,4.909491 -3.387208,5.350739c-0.808433,0.441459 -3.792492,4.00017 -6.395362,7.792353c-11.195696,16.700606 -9.377225,18.700761 -8.592826,52.806266c3.389343,25.84374 3.389343,25.84374 3.389343,25.84374c-7.988133,0 -7.988133,0 -7.988133,0c-6.59471,0 -6.59471,0 -6.59471,0c0.604693,-23.845063 0.604693,-23.845063 0.604693,-23.845063c0.403088,-1.998677 0.606889,-6.02546 0.808494,-8.259089c0.201544,-1.325293 -5.608828,-7.117632 -5.407223,-8.441587c0,-1.117307 6.011916,2.000226 6.011916,0.882707c0.988078,-16.259358 0,-29.194676 -2.60287,-36.078834c-0.604693,-4.233643 -5.608767,-17.843401 -6.393105,-17.843401c-0.201605,0 -1.614731,-1.325293 -3.005958,-2.884059c-2.401326,-2.908139 -3.387208,-3.116265 -16.782625,-4.00017c-14.381299,-0.908125 -14.381299,-0.908125 -14.381299,-0.908125c-3.409107,3.116265 -3.409107,3.116265 -3.409107,3.116265c-1.99592,2.026629 -3.994036,3.350795 -4.576891,3.350795c-1.211582,0 -6.215656,4.676018 -8.391282,7.350683c-0.201544,0 -0.403088,-0.233051 -0.403088,-0.441248c-0.201605,0 -0.201605,0 -0.201605,-0.233403c-0.201544,-0.649234 -0.405284,-1.325293 -0.808433,-2.000014c1.211582,-1.117307 2.19966,-1.793226 2.602809,-1.558555c0.604693,0.441248 1.189683,0 1.189683,-1.117518c0,-1.11611 -1.189683,-1.558696 -4.375286,-1.11611c-3.814452,0.674862 -4.80253,0.908125 -5.407223,3.557584c-0.988139,1.35071 -1.189683,3.350865 -0.604693,4.909632c-0.203801,2.000014 -0.203801,3.350725 0,3.350725c0.201544,0 0.403088,-0.441248 1.007842,-0.909321c0,0.233473 0.201544,0.468073 0.405284,0.675918c-1.998116,0.674721 -3.008154,2.674877 -2.804414,4.674891c-1.009977,0.909321 -1.998116,1.35071 -3.209637,2.025432c0,0 0,-0.233262 -0.179706,-0.233262c0.786534,-2.000014 1.189683,-4.233643 1.391227,-7.584368c0.405345,-3.766907 0.201544,-6.233587 -0.403088,-6.233587c-0.403149,0 -0.808433,0.909321 -0.808433,2.233206c0.201483,1.117518 -0.179706,2.233629 -0.986004,2.441614c-0.606889,0.233262 -1.009977,-0.207986 -1.009977,-1.324096c0,-2.676074 -0.784399,-2.676074 -2.580971,-0.2346c-0.806237,0.909321 -2.399069,2.000155 -3.790296,2.468229c-1.818471,0.649234 -2.401265,0.207774 -3.209698,-2.233629c-0.604693,-2.000014 -1.007842,-4.23477 -0.604693,-5.117477c0.201544,-1.117307 0.201544,-2.025432 -0.582794,-2.025432c-2.199721,0 -0.606889,-3.558922 1.99592,-4.23484zm17.185713,-51.220885c-1.211582,-0.233262 -2.199721,-0.882707 -2.602809,-1.792029c-0.201605,-1.325293 -0.403149,-1.325293 -0.403149,0c0,0.909321 -0.808433,1.558766 -1.592832,1.792029c-1.413126,0 -1.413126,0.233403 0.201605,1.117518c0.985882,0.441248 1.99592,1.115899 2.197464,1.115899c0.179645,0 1.189683,-0.674651 2.199721,-1.115899c1.794376,-1.117518 1.794376,-1.117518 0,-1.117518zm158.437553,35.870849c0.38125,0.441459 0.784399,-0.2346 0.784399,-1.35071c0,-0.883904 -0.403149,-1.766752 -0.784399,-1.766752c-0.606828,0 -1.009977,0.441389 -1.009977,1.090693c0,0.676059 0.403149,1.585381 1.009977,2.026769zm-1.413126,2.000155c-0.201544,-0.676059 -1.189683,-1.558696 -1.998116,-1.558696c-0.582794,0 -0.985943,0.882637 -0.582794,1.558696c0.179645,0.674721 0.988078,1.116181 1.794376,1.116181c0.786534,0 0.988078,-0.441459 0.786534,-1.116181zm-1.794376,10.02563c0.604693,0 1.413126,-0.233262 1.413126,-0.441248c0,-0.468073 -0.808433,-0.909321 -1.413126,-1.350781c-0.786534,-0.441389 -1.391288,-0.207986 -1.391288,0.441459c0,0.675918 0.604754,1.350569 1.391288,1.350569zm1.592832,-21.168708c0.806237,-0.4416 1.211521,-1.117448 1.007842,-1.766893c-0.604754,-1.583973 -3.991962,-1.583973 -3.991962,0c0,1.766893 1.187548,2.441614 2.98412,1.766893zm-10.972192,-16.702155c-1.010038,0.676059 -1.614731,2.000155 -1.413248,2.676074c1.010038,1.765555 2.199782,1.324096 3.207563,-1.558766c0.988139,-2.676074 0.58499,-3.117322 -1.794315,-1.117307zm-3.814452,34.312153c5.205618,6.000114 5.407223,6.233587 5.407223,4.233573c0,-1.11611 -0.403149,-2.025432 -1.010038,-2.025432c-0.582733,0 -1.592771,-1.117518 -2.197464,-2.441403c-0.582855,-1.325504 -1.794376,-2.676285 -2.782515,-2.676285c-1.816275,0 -1.816275,0.23467 0.582794,2.909547zm-4.193506,-10.493844c1.209447,0 1.794437,-0.441248 1.007903,-0.649304c-0.604693,-0.441389 -1.592832,-0.441389 -2.197525,0c-0.60695,0.208056 0,0.649304 1.189622,0.649304zm-5.788412,-30.285369c0.604693,0.674862 2.399069,1.557569 3.99184,2.000226c2.804475,0.674651 3.006019,0.674651 1.413187,-1.117307c-1.816275,-2.208211 -6.796254,-2.882862 -5.405027,-0.882918zm-12.183835,-36.96133c-0.604693,0.649234 -0.806237,2.000014 -0.604693,2.882651c0.403149,1.792169 1.592832,0.233473 1.592832,-2.441403c0,-1.350781 -0.201605,-1.558766 -0.988139,-0.441248zm5.990017,48.10462c1.592832,1.115969 2.199721,1.115969 3.008215,-0.442656c1.592771,-2.441544 0.582733,-3.557513 -2.401326,-1.999944c-2.401265,1.09189 -2.401265,1.09189 -0.606889,2.4426zm-3.99184,-11.143289c3.005958,-2.441192 3.005958,-2.441192 0.604693,-2.441192c-1.614731,0 -2.804414,0.882496 -3.409107,2.441192c-0.38125,1.557569 -0.786534,2.441614 -0.58499,2.441614c0,0 1.592832,-1.325434 3.389404,-2.441614zm-4.397246,36.104322c1.389031,2.441614 3.790357,2.441614 3.005958,-0.233403c-0.201544,-0.883904 -0.405284,-2.000014 -0.405284,-2.234685c0,-0.207986 -0.806298,-0.207986 -1.794376,0.23467c-1.614731,0.441389 -1.614731,1.11611 -0.806298,2.233417zm-6.193757,-9.143064c1.592771,2.441544 2.401265,2.674806 4.195641,0.882848c1.189683,-1.11611 1.189683,-1.11611 0,-1.324096c-0.604693,0 -2.197525,-0.23467 -3.588752,-0.676059c-1.998116,-0.882707 -1.998116,-0.882707 -0.606889,1.117307zm-0.201544,-24.286382c1.009977,0 2.19966,-3.55871 1.592832,-4.674821c-0.784399,-1.117307 -2.39913,0.674651 -2.39913,2.674806c0,1.117378 0.403149,2.000014 0.806298,2.000014zm-9.780374,15.143248c-1.211582,0.909321 -1.009977,1.117518 0.582855,1.117518c1.009977,0 2.197464,-0.442797 2.602809,-1.117518c0.604632,-1.766541 -1.391288,-1.766541 -3.185664,0zm0.201605,19.610294c0.179645,0.23467 0.784338,-0.233403 1.391227,-1.324096c0.604632,-0.909321 2.39913,-2.026629 3.790296,-2.468088c1.794376,-0.674862 2.60287,-1.765485 2.60287,-3.350865c0,-3.765358 -2.804414,-2.649459 -5.788534,2.234755c-1.211521,2.466891 -2.197464,4.467046 -1.995859,4.908294zm-2.19966,-10.259174c1.794315,-2.441262 1.794315,-2.884059 0.381128,-3.558781c-1.592771,-0.882848 -2.780258,1.117518 -2.780258,4.674891c-0.20374,2.676074 -0.20374,2.676074 2.39913,-1.11611zm-3.207563,-26.286326c0.201544,1.791958 0.604693,1.558696 1.794315,-1.766752c1.413248,-3.557584 1.413248,-4.025657 0.201605,-4.025657c-0.784338,0 -1.592832,0.674862 -1.794376,1.79224c-0.403149,0.882637 -0.403149,2.909477 -0.201544,4.00017zm-0.988139,-18.259584c0,0.908125 0.381189,3.116265 0.786534,4.674891c0.604693,3.117462 0.604693,3.117462 1.211582,0.441389c0.784338,-2.674665 0,-6.674835 -1.211582,-6.674835c-0.58499,0 -0.786534,0.67451 -0.786534,1.558555zm-13.997914,7.349697c-0.988078,1.558766 -0.988078,3.117533 -0.20374,7.792353c0.405345,3.350795 1.415383,6.701661 1.998116,7.351105c1.010038,1.117307 1.211582,0 1.413126,-6.908449c0,-8.441798 -1.009977,-11.117661 -3.207502,-8.23501zm1.794376,23.61166c0.201605,0.441459 0.604693,-0.441389 0.403149,-1.766682c0,-1.350781 -0.201544,-1.558766 -0.604693,-0.674721c-0.179706,0.882707 -0.179706,2.000014 0.201544,2.441403zm7.201599,-20.935587c-0.201544,0.441459 -0.201544,3.558922 0.403149,6.908449c0.606889,5.793536 0.786534,6.026798 0.988139,1.793226c0.201544,-6.909646 -0.201605,-10.260371 -1.391288,-8.701675zm-6.79845,62.832107c1.211582,-2.676074 3.207563,-7.14312 4.59879,-9.818982c1.592771,-2.883074 2.602809,-6.675046 3.005958,-10.46723c0.58499,-6.000325 0.58499,-6.000325 0.58499,-6.000325c-2.401265,3.325448 -2.401265,3.325448 -2.401265,3.325448c-1.189683,1.792169 -1.995981,3.792184 -1.995981,4.467046c0,1.766611 -3.792492,12.909689 -4.982175,14.909845c-0.604693,1.115899 -1.614731,3.584198 -1.794376,5.350739c-1.010038,5.116421 0.786534,4.233573 2.984059,-1.766541zm-14.179755,22.935601c0.606889,4.441418 0.606889,4.441418 2.60287,-5.117547c1.189683,-5.143035 2.984059,-13.376496 4.195641,-18.494113c1.592771,-6.467061 2.19966,-11.8178 2.19966,-19.37668c0,-9.817996 -0.20374,-10.025982 -1.796511,-8.908464c-3.610712,2.882792 -5.608828,10.908408 -6.415126,26.492903c-0.381189,8.027165 -0.786534,16.05278 -1.189622,17.819532c-0.201605,1.792029 0,5.142894 0.403088,7.584368zm0.405345,-57.014492c0.784338,2.208141 1.592832,4.00017 1.592832,4.00017c0.201544,0 1.187426,-1.350781 1.99592,-3.117322c1.009977,-1.557499 2.602809,-3.349528 3.207563,-3.998973c2.379305,-2.026629 2.983998,-8.260216 0.988078,-12.493788c-1.592832,-3.792184 -5.990017,-8.027024 -6.798511,-6.676243c-0.403088,0.441389 -0.985882,4.676229 -1.391227,9.584523c-0.806237,7.350894 -0.806237,9.585509 0.405345,12.701633zm-1.211582,-51.013956c0.403149,0.442656 0.806237,0.207986 0.806237,-0.466665c0,-0.884045 -0.403088,-1.766893 -0.806237,-2.208211c-0.606889,-0.468003 -0.988139,-0.233403 -0.988139,0.649445c0,0.674721 0.38125,1.558766 0.988139,2.025432zm-64.726854,59.897002c2.782454,0.2346 2.782454,0.2346 2.782454,0.2346c2.804414,0 5.608828,-2.884059 5.608828,-5.350739c0,-1.558766 -0.201544,-1.558766 -8.391282,5.116139zm1.189683,-6.233657c0,0.67627 0.403149,1.350781 1.010038,1.350781c0.985943,0 3.790296,-4.00017 3.185603,-4.674821c-0.606889,-0.909321 -4.195641,1.999944 -4.195641,3.32404zm2.19966,-15.351022c3.006019,4.442614 4.397246,4.884003 5.990017,1.999944c1.614731,-2.674665 0.201605,-4.466835 -4.600925,-5.11628c-3.991901,-0.676059 -3.991901,-0.676059 -1.389092,3.116336zm-2.19966,-12.492662c0,0.466665 1.413126,1.557358 3.005958,2.46668c7.381305,4.233643 8.794431,4.233643 8.592826,0.208197c0,-2.441614 -3.005958,-7.792494 -4.195641,-7.792494c-1.413126,0 -7.403143,4.233573 -7.403143,5.117618zm10.792547,31.636079c2.197525,0 2.399069,-0.674862 0.604693,-1.765555c-0.808433,-0.2346 -1.592832,0 -1.794376,0.649445c-0.405345,0.67451 0.201544,1.11611 1.189683,1.11611zm1.592832,-52.338263c-1.391288,-1.117448 -3.18786,-1.558696 -3.994097,-1.117448c-1.391227,0.884045 -1.189683,1.117448 0.806237,1.791958c0.988139,0.442797 3.008215,0.884115 3.994097,1.092101c1.189683,0 1.189683,-0.442656 -0.806237,-1.766611zm-0.179645,8.025616c1.187426,0 1.391227,-0.233403 0.582794,-0.908125c-0.582794,-0.207845 -1.391288,-0.207845 -1.794437,0.233473c-0.201544,0.441248 0.403149,0.882848 1.211643,0.674651zm1.187426,5.117688c-2.804353,0 -2.804353,0.207774 -1.187426,1.999944c1.99592,2.000014 2.578714,2.233277 3.387208,0.882707c1.391166,-1.765555 0.403088,-2.882651 -2.199782,-2.882651zm3.994158,-25.16923c-0.808494,-1.117307 -1.010038,0.882848 -0.604754,3.324251c0.201544,1.558766 1.007842,2.909336 1.413187,2.909336c0.784338,0 0.201544,-4.909491 -0.808433,-6.233587zm6.393105,29.40245c-0.403088,0.208197 0.606889,1.558766 1.796572,2.676214c1.211582,1.11611 2.197464,1.557429 2.197464,0.882707c0,-1.558555 -3.387147,-4.468032 -3.994036,-3.558922zm-5.001939,1.558766c-1.794376,1.558907 -0.784338,5.558866 1.816336,6.233728c1.391227,0.441318 3.590948,2.233488 4.982175,4.000029c1.211582,1.792169 2.197464,2.468229 2.197464,1.792169c0,-2.233417 -7.985937,-12.935248 -8.995975,-12.025926zm8.189738,18.494324c-1.189622,-3.585536 -2.58091,-5.351091 -5.18378,-6.468398c-1.99592,-0.882707 -3.994036,-1.350569 -4.598729,-1.115969c-0.606889,0.233262 1.794376,3.116125 5.205679,6.46692c6.393105,5.792339 6.393105,5.792339 4.57683,1.117448zm10.610706,-34.312293c-0.403149,0 -0.808494,0.882848 -0.808494,1.765555c0,1.117307 0.405345,1.792169 0.808494,1.792169c0.582794,0 0.988139,-0.674862 0.988139,-1.792169c0,-0.882707 -0.405345,-1.765555 -0.988139,-1.765555zm-1.816275,18.259584c0,1.558555 3.409107,0.441389 4.800334,-1.558766c1.995981,-3.350725 1.794376,-4.233573 -0.808433,-4.233573c-1.794376,0 -3.991901,3.117603 -3.991901,5.792339zm5.810372,-48.104831c-0.606889,2.882862 -1.010038,5.324266 -0.808433,5.558936c0.606828,0.882848 2.199721,-5.792198 2.199721,-8.468272c0,-1.11611 -0.60695,0.23467 -1.391288,2.909336zm10.387263,44.987298c-1.010038,0 -1.794437,0.442797 -1.794437,1.325293c0,0.674862 0.582794,1.117518 1.187487,1.117518c0.808433,0 1.592832,-0.442656 1.796572,-1.117518c0.403149,-0.882496 -0.20374,-1.325293 -1.189622,-1.325293zm-2.401326,41.871033c1.189683,4.026854 2.984059,7.792353 3.994097,8.701675c1.010038,0.674862 3.005958,3.792325 4.195641,6.909646c1.189683,3.116265 2.401265,5.557739 2.60287,5.557739c0.985882,0 -1.010038,-20.493001 -2.401265,-26.727785c-1.211643,-5.349542 -1.592893,-10.259174 -1.391288,-18.051527c0.179645,-5.792198 0,-10.909816 -0.403088,-11.351134c-0.201605,-0.441389 -1.592832,-0.441389 -2.804414,0c-2.199721,0.882707 -2.401265,1.558766 -2.401265,6.468257c0,3.76557 -0.40321,5.792339 -1.391288,6.674835c-2.804353,2.000226 -2.602809,13.351289 0,21.818294zm-5.788412,-29.843839c-0.403149,-3.350795 -0.806237,-3.792184 -3.005958,-3.792184c-2.60287,0 -2.60287,0.233403 -2.401265,4.908294c0,2.884059 0.405284,6.234784 0.606828,7.792283c0.201605,1.558766 0.988139,3.117322 1.794437,3.350795c1.592771,1.117448 3.387147,-6.674835 3.005958,-12.259188zm-3.005958,22.492945c-1.794437,-2.674877 -3.005958,-5.557739 -3.185664,-6.233587c0,-0.882707 -1.009977,-3.116125 -2.197525,-5.11628c-1.211582,-2.000014 -2.602809,-4.468102 -3.209698,-5.35095c-1.99592,-3.117322 -1.592832,-0.441248 0.606889,6.467061c1.391227,4.676018 3.790357,8.909661 6.59471,12.468371c5.183719,6.025601 5.788473,4.908505 1.391288,-2.234614zm-3.185664,10.935092c2.175626,0 1.995981,-0.233262 -1.009977,-3.791973c-1.995981,-2.233629 -3.387208,-4.675032 -3.387208,-5.792409c0,-0.882637 -2.60287,-4.025587 -5.608767,-6.908449c-2.98412,-2.909265 -5.788534,-5.792128 -6.191622,-6.676032c-0.405345,-1.11611 -0.606889,-1.11611 -0.606889,0.207986c0,1.350781 -0.985943,1.558555 -4.195641,0.882707c-2.197525,-0.441459 -3.991901,-0.441459 -3.991901,-0.206789c0,0.441389 0.806237,3.116265 1.614731,5.792128c1.391288,4.441629 1.99592,5.351091 6.393166,7.116505c2.782515,1.117307 7.179639,3.792113 9.984053,5.792128c2.60287,2.02684 5.788473,3.584198 7.000055,3.584198zm-31.185761,7.55888c0.808433,0 1.998116,-0.441248 2.804353,-1.117096c1.391288,-1.557569 0.203801,-1.557569 -2.399069,0c-1.189683,0.675848 -1.391227,0.883834 -0.405284,1.117096zm-2.197525,-5.558866c1.995981,-0.907984 8.391282,-1.792029 14.201654,-1.792029c10.970057,-0.207986 13.169717,-0.882496 8.772471,-2.233417c-1.391166,-0.441248 -4.57683,-1.558766 -7.179639,-2.674877c-4.59879,-2.000014 -14.00011,-1.325293 -14.986053,0.908336c-0.20374,0.442445 -1.211582,0.675848 -2.19966,0.442445c-1.995981,-0.675918 -3.994097,1.116251 -4.59879,4.675032c-0.808433,2.882651 0.604693,3.117322 5.990017,0.67451zm-15.974131,5.117618c0.403149,1.792169 2.401265,2.000014 3.994097,0.441248c0.985882,-0.882637 0.985882,-1.323885 0,-2.674665c-0.808433,-1.325504 -1.391227,-1.325504 -2.602809,-0.207986c-0.808433,0.649445 -1.391288,1.765555 -1.391288,2.441403zm-6.393166,15.584707c0.784399,0 1.187548,0.674862 0.784399,2.000155c-0.179706,0.909321 -0.784399,1.792029 -1.189683,1.792029c-0.604693,0 -0.985943,-0.882707 -0.985943,-1.792029c0,-1.090693 0.582794,-2.000155 1.391227,-2.000155z" stroke-width="1.5" fill="none"/>
 </g>
</svg>